<?xml version="1.0" encoding="UTF-8"?><svg xmlns="http://www.w3.org/2000/svg" xmlns:cc="http://creativecommons.org/ns#" xmlns:dc="http://purl.org/dc/elements/1.1/" xmlns:rdf="http://www.w3.org/1999/02/22-rdf-syntax-ns#" viewBox="0 0 212.6025 249"><title>slop-free.org</title><metadata><rdf:RDF><cc:Work rdf:about=""><dc:format>image/svg+xml</dc:format><dc:type rdf:resource="http://purl.org/dc/dcmitype/StillImage" /><dc:title>slop-free.org</dc:title><cc:license rdf:resource="https://opensource.org/licenses/MIT" /><dc:creator><cc:Agent><dc:title>https://github.com/octogonz</dc:title></cc:Agent></dc:creator><dc:description>Copyright (c) Pete Gonzalez. All rights reserved. Licensed under the MIT license.</dc:description></cc:Work></rdf:RDF></metadata><g id="a"><path d="M209.00676953,115.05208333c-.0078125-.77880859-.02294922-1.55664062-.04785156-2.33203125l-.03466797-.953125c-.03173828-.765625-.07275391-1.52929688-.12109375-2.28955078l-.04785156-.7734375c-.07275391-1.01464844-.15771484-2.02734375-.25927734-3.02685547l-.03515625-.31298828c-.09375-.90234375-.20117188-1.80029297-.31787109-2.69433594l-.11572266-.83740234c-.10546875-.75683594-.21923828-1.51171875-.34179688-2.265625l-.12744141-.77929688c-.33984375-1.9921875-.74169922-3.99072266-1.19384766-5.93896484l-.14599609-.60839844c-.18896484-.79052734-.38671875-1.57763672-.59472656-2.36816406l-.18652344-.69677734c-.23388672-.86132812-.47753906-1.71923828-.73339844-2.57226562l-.08837891-.30029297c-.30224609-.99804688-.62011719-1.99072266-.95703125-2.99267578l-3.33929443,1.05371094h0l3.28167725-1.21923828c-.30224609-.89208984-.61865234-1.77880859-.94384766-2.65820312l-.20361328-.54492188c-.31103516-.82617188-.63183594-1.6484375-.96728516-2.47460938l-.14111328-.35058594c-.77783203-1.89550781-1.62597656-3.79736328-2.51611328-5.64160156l-.15576172-.31884766c-.40722656-.83691406-.82568359-1.66748047-1.2578125-2.49804688l-.15576172-.30029297c-1.43896484-2.74267578-3.02636719-5.4609375-4.71240234-8.0703125l-.13720703-.21240234c-1.71044922-2.6328125-3.56152344-5.21679688-5.55419922-7.74658203-4.62597656-5.86230469-9.89648438-11.22949219-15.66552734-15.953125-14.90722656-12.20605469-32.92822266-19.95458984-52.11523438-22.40869141-4.37597656-.55957031-8.81445312-.84326172-13.19238281-.84326172-.89160156,0-1.79052734.01269531-2.71875.03857422l-6.98486328-6.96044922c-3.74121094-3.72851562-8.92089844-5.4765625-14.58544922-4.92822266-5.30957031.51367188-10.45410156,3.02490234-14.48632812,7.07128906-.30712891.30859375-.63769531.62597656-.97753906.953125-1.91748047,1.84521484-4.41259766,4.24707031-5.33105469,7.26318359-5.30712891,3.18994141-9.42138672,7.84179688-11.95556641,13.54199219l-.234375.52783203C23.90960156,47.22395833,7.61272656,73.56722005,3.83977734,103.06673177c-2.52636719,19.75390625.67285156,39.6484375,9.25097656,57.53125l.24609375.50292969c.36279297.74609375.734375,1.48828125,1.11523438,2.22558594l.32519531.625c.42382812.80761719.85791016,1.61132812,1.34179688,2.4765625l.08447266.15429688c.50244141.89160156,1.01855469,1.77539062,1.55078125,2.66015625l.24462891.3984375c.43994141.72167969.88867188,1.43847656,1.34570312,2.14941406l.39257812.60644531c.46728516.71582031.94238281,1.42578125,1.42529297,2.12597656l.25195312.37011719c.58154297.8359375,1.17431641,1.66308594,1.78271484,2.48535156l.21240234.28222656c.52197266.70117188,1.05371094,1.39355469,1.59765625,2.08789062l.45947266.578125c.50537109.63476562,1.01855469,1.26269531,1.54345703,1.890625l.37353516.44921875c.65380859.7734375,1.31738281,1.5390625,1.98925781,2.28710938l.13525391.1484375c.61962891.6875,1.24951172,1.36523438,1.88525391,2.03320312l.52148438.54296875c.54541016.56542969,1.09765625,1.12402344,1.66113281,1.68359375l.49023438.48632812c1.42578125,1.39257812,2.90625,2.7578125,4.39599609,4.05273438l.58837891.50585938c.58105469.49804688,1.16796875.99023438,1.76025391,1.47460938l.60742188.49609375c.76513672.6171875,1.53710938,1.22753906,2.32128906,1.82324219l.08837891.06738281c.77587891.58886719,1.56298828,1.1640625,2.36132812,1.734375l.61669922.43359375c.62304688.43847656,1.25146484.87011719,1.89160156,1.29980469l.70166016.46777344c.72607422.47851562,1.45898438.94921875,2.19775391,1.40917969l.32666016.20605469c.8515625.52539062,1.71240234,1.03808594,2.57763672,1.53808594l.64453125.36523438c.66699219.37890625,1.33837891.75097656,2.01513672,1.11621094l.79785156.42480469c.71337891.37695312,1.43212891.74511719,2.14550781,1.09960938l.55322266.27734375c.90234375.44238281,1.8125.87207031,2.7265625,1.28613281l.62402344.27636719c.72021484.32226562,1.4453125.63574219,2.17822266.94238281l.86572266.35839844c.71533203.29101562,1.43408203.57324219,2.1484375.84570312l.71630859.27539062c.94824219.35351562,1.90234375.6953125,2.87744141,1.02636719l.53808594.17578125c.78759766.26367188,1.57958984.51660156,2.37597656.76074219.30810547.09375.61669922.18652344.92236328.27636719.72753906.21582031,1.45898438.42382812,2.18847656.62109375l.83642578.22851562c.99169922.26074219,1.98876953.51171875,2.98583984.7421875l.38623047.08496094c.88427734.20117188,1.7734375.390625,2.66357422.56933594.31347656.0625.62890625.12207031.95263672.18261719.74560547.14257812,1.49462891.27636719,2.24121094.40234375l.9375.15625c1.03320312.16308594,2.07080078.31640625,3.11914062.45117188,1.02929688.13183594,2.05566406.24316406,3.08105469.34472656l.98681641.0859375c.70117188.06152344,1.40234375.11914062,2.09814453.16601562.3203125.02246094.64013672.04101562.95996094.05957031l.18408203.01074219c.65625.03808594,1.31152344.06933594,1.95751953.09277344.38330078.015625.76660156.02832031,1.16162109.04003906.67236328.01660156,1.34326172.02636719,2.01123047.03125l.27050781.00488281c.16015625.00390625.3203125.00683594.47998047.00683594l.23583984-.00488281c1.23876953-.00292969,2.53466797-.03125,3.85791016-.08300781l.80273438-.03710938c1.50195312-.07128906,2.75146484-.15234375,3.93066406-.25488281,24.62988281-2.125,47.7265625-13.12207031,65.03613281-30.96582031,1.99267578-2.0546875,3.91992188-4.21484375,5.72802734-6.41894531,1.81835938-2.21777344,3.56542969-4.54101562,5.19189453-6.90332031,9.34716797-13.58007812,15.15380859-28.81347656,17.25927734-45.27539062.13232422-1.03466797.24414062-2.06689453.34521484-3.09716797l.08398438-.94287109c.06591797-.74072266.12402344-1.48046875.17285156-2.21337891.02294922-.33398438.04541016-.66845703.06396484-.99902344.04736328-.82617188.08447266-1.65185547.11230469-2.47167969l.0234375-.61474609c.02832031-1.02197266.04003906-2.04101562.03808594-3.05761719l-.00830078-.75292969Z" fill="#fff" /><rect width="212.6025" height="249" fill="none" /></g><g id="b"><g id="c"><path d="M106.13030469,214.14485677c-4.16650391,0-8.39111328-.26953125-12.55517578-.80273438C39.97454297,206.48665365,1.94426953,157.30208333,8.79925,103.70100911c2.85693359-22.3359375,13.40966797-43.15625,29.71484375-58.62451172,16.07910156-15.25439453,37.02246094-24.69824219,58.97119141-26.59228516,2.77783203-.23974609,5.60253906-.36132812,8.39550781-.36132812,4.16845703,0,8.39404297.27001953,12.55957031.80273438,53.60107422,6.85546875,91.63085938,56.04052734,84.77539062,109.64111328-2.85693359,22.33691406-13.40966797,43.15625-29.71484375,58.625-16.07910156,15.25488281-37.02197266,24.69824219-58.97070312,26.59179688-2.77880859.24023438-5.60449219.36132812-8.39990234.36132812ZM169.17083203,75.20003255c-.32958984,0-.65283203.10888672-.91748047.31347656l-117.22460938,90.63916016c-.33544922.25878906-.54541016.64746094-.578125,1.0703125-.03271484.421875.11474609.83886719.40576172,1.14648438,12.01904297,12.71191406,28.18164062,20.93359375,45.50927734,23.15039062,3.23730469.4140625,6.52685547.62402344,9.77783203.62402344,2.16796875,0,4.35302734-.09375,6.49511719-.27929688,17.00488281-1.46582031,33.2421875-8.79394531,45.72070312-20.63378906,12.82177734-12.16308594,20.78662109-27.88183594,23.03417969-45.45507812,2.21630859-17.32763672-1.67285156-35.03857422-10.95117188-49.87109375-.22460938-.359375-.59033203-.60644531-1.0078125-.68115234-.08740234-.015625-.17578125-.0234375-.26367188-.0234375ZM99.37688672,40.40266927c-17.00488281,1.46777344-33.24267578,8.79541016-45.72119141,20.63378906-12.82128906,12.16308594-20.78613281,27.88134766-23.03417969,45.45556641-1.77294922,13.86230469.30810547,27.91455078,6.01757812,40.63720703.18847656.41894531.55859375.72949219,1.00439453.84082031.12011719.03027344.24267578.04492188.36425781.04492188.32861328,0,.65185547-.10839844.91748047-.31347656l114.51757812-88.54541016c.36376953-.28125.578125-.71337891.58251953-1.17285156.00390625-.45996094-.20263672-.89599609-.56103516-1.18359375-10.87695312-8.72802734-23.953125-14.27880859-37.81494141-16.05175781-3.23730469-.4140625-6.52636719-.62353516-9.77587891-.62353516-2.16845703,0-4.35400391.09375-6.49560547.27832031h-.00097656Z" fill="#c13a3a" /><path d="M105.88244092,19.6230367c4.10461426,0,8.26574707.26599121,12.36761475.79055786,52.7802124,6.75057983,90.22821045,55.18249512,83.47784424,107.96282959-2.81304932,21.99438477-13.20422363,42.49560547-29.25933838,57.72705078-15.8336792,15.02142334-36.45574951,24.32098389-58.06750488,26.18566895-2.73535156.23596191-5.51727295.35565186-8.26843262.35565186-4.10473633,0-8.26580811-.26599121-12.36755371-.79052734C40.98479688,205.10371908,3.53679883,156.67171224,10.28722607,103.89140828c2.81304932-21.99432373,13.20422363-42.49542236,29.25933838-57.72683716,15.83361816-15.02124023,36.45568848-24.32089233,58.06756592-26.18585205.00408936-.00033569.00817871-.0007019.01226807-.00106812,2.73120117-.23532104,5.5088501-.35461426,8.25604248-.35461426M99.25786816,38.90746053c-.00341797.00030518-.00683594.00057983-.01025391.00088501-17.34179688,1.49649048-33.89996338,8.96868896-46.62426758,21.04016113-13.07507324,12.40420532-21.19769287,28.43292236-23.48962402,46.35333252-1.80792236,14.13562012.31420898,28.46569824,6.13690186,41.44110107.37640381.83868408,1.11645508,1.45849609,2.00823975,1.68188477.24078369.06030273.4854126.08984375.7286377.08984375.6574707,0,1.30438232-.21624756,1.83520508-.62670898l114.51745605-88.54507446c.72729492-.56228638,1.15655518-1.42694092,1.16485596-2.34619141s-.40533447-1.79153442-1.12225342-2.36688232c-11.09240723-8.90124512-24.42730713-14.56182861-38.56311035-16.36978149-3.29931641-.42193604-6.65240479-.63586426-9.96612549-.63586426-2.20794678,0-4.43365479.09533691-6.61566162.28329468M106.14135205,193.64363607c2.21136475,0,4.4407959-.09558105,6.62640381-.28417969,17.34155273-1.49621582,33.89959717-8.96826172,46.62402344-21.03985596,13.07513428-12.40441895,21.19769287-28.43322754,23.48962402-46.35351562,2.2600708-17.67111206-1.70593262-35.73242188-11.16741943-50.85687256-.44940186-.71838379-1.18157959-1.2131958-2.01568604-1.36221313-.17553711-.03134155-.35205078-.04678345-.52764893-.04678345-.65924072,0-1.30578613.21746826-1.83508301.62670898l-117.22436523,90.63897705c-.67028809.51831055-1.09020996,1.29589844-1.15588379,2.14068604-.06573486.8447876.22888184,1.67791748.81103516,2.29364014,12.25622559,12.96337891,28.73797607,21.34735107,46.40905762,23.60754395,3.2989502.42193604,6.65197754.63586426,9.96594238.63586426M105.88244092,16.6230367c-2.86590576,0-5.7086792.12368774-8.52496338.3666687-.00042725.00003052-.00085449.00006104-.00128174.00012207C51.70043408,20.92958577,13.36181104,56.20531209,7.31145703,103.51079305c-6.97143555,54.5083313,31.5647583,104.34762573,86.07299805,111.31924438,4.28460693.5479126,8.54016113.8147583,12.74816895.8147583,2.86602783,0,5.70983887-.1237793,8.52630615-.36676025,45.65576172-3.93920898,83.99438477-39.2154541,90.04473877-86.52099609,6.97137451-54.5083313-31.56469727-104.34759521-86.07299805-111.31921387-4.28430176-.5479126-8.54052734-.81478882-12.74822998-.81478882h0ZM38.00768506,146.51466878c-5.42352295-12.08569336-7.69830322-25.75775146-5.89819336-39.83224487,2.20324707-17.22680664,10.01080322-32.634552,22.57861328-44.55749512,12.2333374-11.60568237,28.14984131-18.78939819,44.81744385-20.22769165l.00097656-.00006104c2.11016846-.18206787,4.23583984-.27301025,6.36694336-.27301025,3.19317627-.00003052,6.39892578.20410156,9.58563232.6116333,14.074646,1.80014038,26.73419189,7.44287109,37.06604004,15.73379517l-114.51745605,88.54507446h0ZM106.14135205,190.6436971c-3.19311523,0-6.39892578-.2041626-9.58532715-.61169434-17.72149658-2.26660156-33.19934082-10.62408447-44.60974121-22.69281006l117.22436523-90.63894653c8.80847168,14.08062744,13.00152588,31.16366577,10.73498535,48.88522339-2.20324707,17.22686768-10.01092529,32.63470459-22.57861328,44.55773926-12.23339844,11.60571289-28.14971924,18.78930664-44.81713867,20.22735596-2.11083984.18212891-4.23687744.27313232-6.36853027.27313232h0Z" fill="#822121" /></g></g><g id="d"><path d="M97.19114114,169.05604332c6.69266024,4.57191741,13.8098399,11.08759194,22.31143794,11.58697384,9.91193271.58222463,18.73843236-7.05609111,25.96731485-12.79677323,5.28957264-4.20061539-2.18420233-11.58620205-7.4246212-7.4246212-4.68094816,3.71728762-12.03916487,10.62805905-18.69340288,9.68811625-6.03113746-.85192688-12.04568849-6.83056121-16.86117766-10.12013785-5.5938911-3.82132175-10.85201785,5.27341839-5.29955105,9.06644219h0Z" fill="#a5a5a5" stroke="#000" stroke-miterlimit="10" stroke-width="3" /><path d="M108.90117192,177.06659205c1.91923939.10750369,3.93911533-1.1874111,4.93831332-3.35566388.99918298-2.16822022.67135173-4.5450308-.6572431-5.93422915" fill="none" stroke="#000" stroke-miterlimit="10" stroke-width="3" /><path d="M117.73684134,180.4886182c1.88609518-.2633695,3.63183782-1.95155545,4.23584942-4.31755443.60400252-2.36596346-.11890519-4.68436685-1.64795784-5.81958349" fill="none" stroke="#000" stroke-miterlimit="10" stroke-width="3" /><path d="M128.22968372,179.20500213c1.29846234-1.03584106,1.89117656-3.27996096,1.34480517-5.64209054-.54636318-2.36209411-2.06430424-4.11801108-3.68573689-4.47846887" fill="none" stroke="#000" stroke-miterlimit="10" stroke-width="3" /><rect x="134.95129669" y="148.71815518" width="39.69225133" height="37.61573373" rx="7.77452692" ry="7.77452692" transform="translate(-53.02683877 73.52449802) rotate(-22.92360654)" fill="#a5a5a5" stroke="#000" stroke-linejoin="round" stroke-width="3" /><rect x="86.22815963" y="154.50697437" width="21.11111114" height="19.5555548" rx="6.38888871" ry="6.38888871" transform="translate(-42.57658314 34.14915157) rotate(-16.45717546)" fill="#a5a5a5" stroke="#000" stroke-linejoin="round" stroke-width="3" /><rect id="e" x="84.20323354" y="96.53468025" width="8.15098402" height="91.86037913" rx="2.99999595" ry="2.99999595" transform="translate(-36.74347542 30.84577745) rotate(-16.4571755)" fill="#727272" stroke="#000" stroke-linejoin="round" stroke-width="3" /><rect x="81.52661822" y="157.97965896" width="16.66666666" height="10.44444445" rx="5.22221674" ry="5.22221674" transform="translate(-42.55346212 32.14329583) rotate(-16.45717556)" fill="#a5a5a5" stroke="#000" stroke-linejoin="round" stroke-width="3" /><rect x="84.47338867" y="168.34736766" width="16.66666666" height="10.44444442" rx="5.22221699" ry="5.22221699" transform="translate(-45.36989545 33.40285856) rotate(-16.45717549)" fill="#a5a5a5" stroke="#000" stroke-linejoin="round" stroke-width="3" /><rect x="78.47328869" y="147.64342789" width="16.66666667" height="10.44444446" rx="5.222217" ry="5.222217" transform="translate(-39.75031134 30.85483407) rotate(-16.45717538)" fill="#a5a5a5" stroke="#000" stroke-linejoin="round" stroke-width="3" /><rect x="96.27717413" y="147.30403535" width="10.44444444" height="13.33333209" rx="5.22221695" ry="5.22221695" transform="translate(-39.46143335 35.06254844) rotate(-16.45717527)" fill="#a5a5a5" stroke="#000" stroke-linejoin="round" stroke-width="3" /><g id="f"><g id="g"><path d="M82.96020487,85.01147049c.31720246-4.78357809-7.92919118-6.03557471-17.31474062-3.89889471-8.59179045,1.95597572-22.57487888-1.08763359-22.89208134,3.6959445s14.9202681,7.22571645,23.71258253,7.80873538c8.79231444.58301893,16.17703697-2.82220708,16.49423942-7.60578517Z" /><path id="h" d="M86.18348489,52.28519718c.08709645,2.29017824-.16941764,4.62871481-.81462965,6.94732277l-4.7721938,17.14916385c-2.93157645,10.5347953-13.94939767,16.75558751-24.48419298,13.82401107l-5.72802986-1.59397093c-2.38395626-.66339685-4.5440161-1.74414804-6.43008496-3.13640981-.26471623,8.92539107,5.57164741,17.27619079,14.53640791,19.77086486l5.72802986,1.59397093c10.53490003,2.93160559,21.55273583-3.28923898,24.48431227-13.82403429l4.7721938-17.14916385c2.46145178-8.84537418-.69449597-17.98251498-7.2918126-23.58175461Z" fill="#ffcd9e" stroke="#000" stroke-linejoin="round" stroke-width="3" /></g><g id="i"><path d="M72.56812339,17.45143271h5.32776417c13.92954167,0,25.23856219,11.30902052,25.23856219,25.23856219v22.38757836c0,11.55855374-9.38407914,20.94263288-20.94263288,20.94263288h-9.62369376c-13.92954181,0-25.23856245-11.30902064-25.23856245-25.23856245v-18.09164825c0-13.92954196,11.30902076-25.23856272,25.23856272-25.23856272Z" transform="translate(27.50833672 -26.10312382) rotate(23.97154347)" fill="#ffcd9e" stroke="#000" stroke-miterlimit="10" stroke-width="3" /><path d="M56.54939854,43.68353708c-2.40075091-.87448789-5.12411456-.87787462-7.65475787.2154713-5.25595627,2.27079745-7.67590585,8.37243744-5.40512184,13.62836259,2.27079745,5.25595627,8.37243744,7.67590585,13.62839371,5.4051084,2.53064331-1.09334592,4.39476123-3.07875743,5.40346765-5.42627641" fill="#ffcd9e" stroke="#000" stroke-linecap="round" stroke-miterlimit="10" stroke-width="3" /><path d="M92.4878437,68.58312619c-.32426439,1.94599384.0022265,3.53888645,1.07570865,4.33738746,2.22954188,1.65842669,6.80711212-.7212963,10.22426858-5.31523263,3.41717669-4.59396352,4.37994502-9.66252768,2.15040314-11.32095437-1.07348215-.79850101-2.69299654-.65308644-4.46353017.21711173" fill="#ffcd9e" stroke="#000" stroke-linecap="round" stroke-miterlimit="10" stroke-width="3" /><ellipse cx="67.70693801" cy="37.15899132" rx="8.01453194" ry="6.03563517" transform="translate(-5.70771953 61.14457344) rotate(-46.85183578)" fill="#fff" stroke="#000" stroke-miterlimit="10" stroke-width="3" /><ellipse cx="81.32952738" cy="48.58456185" rx="8.01453194" ry="6.03563517" transform="translate(-9.73740141 74.69521397) rotate(-46.85183578)" fill="#fff" stroke="#000" stroke-miterlimit="10" stroke-width="3" /><path d="M102.40139803,36.5547828c4.06367455,2.79580987,4.39329275,8.71820489,2.89531575,13.78416704.73085154-.55720543,1.44348843-1.15789327,2.11630778-1.83308982l.00005459-.00005479c6.64160706-6.66507312,7.56018642-16.51785388,2.05177237-22.00687583l-16.8154375-16.75623957c-5.50841405-5.48902195-15.35784713-4.53565427-21.99945419,2.12941885l-.00005459.00005479c-2.42884292,2.43742448-6.21909961,5.45529462-4.94708812,8.22270878,4.19940467,9.13631053,28.41460836,10.76053174,36.69858391,16.45991054Z" fill="#727272" stroke="#000" stroke-linejoin="round" stroke-width="3" /></g></g><polyline points="153.3564618 112.0995438 160.469262 91.85629041 163.10521689 113.15025614" fill="#a5a5a5" stroke="#000" stroke-linejoin="round" stroke-width="3" /><rect x="112.74116151" y="111.63152256" width="70.74008375" height="40.56875829" rx="12" ry="12" transform="translate(14.98874645 -15.11180028) rotate(6.15154309)" fill="#a5a5a5" stroke="#000" stroke-linejoin="round" stroke-width="3" /><rect x="123.81681312" y="119.80796603" width="15.55555555" height="15.33333332" rx="7.666659" ry="7.666659" transform="translate(14.41772289 -13.36747727) rotate(6.15154303)" fill="#727272" stroke="#000" stroke-linejoin="round" stroke-width="3" /><rect x="150.77181701" y="122.71315286" width="15.55555555" height="15.33333333" rx="7.66665809" ry="7.66665809" transform="translate(14.88424696 -16.23920782) rotate(6.1515431)" fill="#727272" stroke="#000" stroke-linejoin="round" stroke-width="3" /><rect x="156.67322499" y="87.54692892" width="7.49019645" height="7.49019642" rx="3.74509452" ry="3.74509452" transform="translate(10.70641293 -16.66452228) rotate(6.15154106)" fill="#a5a5a5" stroke="#000" stroke-linejoin="round" stroke-width="3" /></g><g id="j"><g id="k"><path d="M167.71470384,40.04118277l-18.15751844,13.83165016c1.33005451.93294311,2.63496404,1.90603813,3.90711223,2.92686482.35808492.28766611.5653142.72410458.56086061,1.18370819-.00396711.45956164-.21858914.89171989-.58247001,1.17306448l-114.51756038,88.5444089c-.2306105.17868817-.50482481.28370344-.78843907.30817392-.16345522.01410306-.33023389.00104752-.49352539-.03975423-.44580559-.11150469-.81563471-.42168208-1.00371397-.84065911-.81803155-1.8226579-1.55263346-3.67524235-2.22103614-5.54799635l-18.16378462,13.83641788c13.39589796,30.46875733,41.96947851,53.40388266,77.32014899,57.92570848,6.97050826.89042883,14.02107976,1.0388067,20.95527813.44051812,21.94872752-1.89375505,42.89170519-11.33739899,58.97101343-26.59149355,16.30486681-15.46861389,26.85790841-36.28877317,29.71504194-58.62486704,4.45693356-34.85099414-10.06582718-67.82983208-35.50140731-88.52574468ZM181.39344821,125.77576612c-2.24770113,17.57320504-10.21262381,33.29165001-23.03380348,45.45540385-12.47827089,11.83814978-28.71556147,19.16633039-45.72074164,20.63355193-5.38088734.46426758-10.85592539.34854413-16.2729641-.34461493-17.32843778-2.21686975-33.49056022-10.43903905-45.50963787-23.15115787-.29115384-.30716365-.43835208-.72378679-.40568849-1.14612666s.24262528-.81194782.57810766-1.07025816l117.22444944-90.63934377c.2297215-.17763127.50438031-.283175.78848104-.30768745.12988852-.01120689.26221906-.00547115.39265532.01807147.4171091.07428292.78346955.32153729,1.00807215.68100209,9.27803635,14.83156457,13.16696677,32.54280566,10.95106996,49.87115949Z" fill="#c13a3a" /><path d="M48.95529037,167.10660867c-.06568681.84477203.22888162,1.67788095.81100592,2.2936331,12.25633958,12.96340553,28.73805674,21.34736052,46.40912949,23.60750785,5.52485934.70664563,11.1073314.82498439,16.59232415.35173451,17.34163765-1.49625138,33.89965065-8.96837933,46.62402924-21.03991351,13.07506209-12.40430282,21.19766648-28.43310544,23.48959475-46.35356076,2.26009177-17.67100669-1.70591433-35.73238704-11.16733729-50.85682767-.44940121-.71836134-1.18160106-1.21322134-2.01573438-1.36222334-.26163681-.04671298-.52555768-.05812581-.78539553-.03570678-.56856107.0491172-1.11723078.25990369-1.57724514.61564437l-117.22447568,90.63903973c-.67033137.51828135-1.09020872,1.29590048-1.15589553,2.14067251ZM169.1706748,76.70021874c8.80842193,14.08057931,13.00147699,31.1636819,10.73496408,48.88523233-2.20327368,17.22685641-10.01090048,32.63473197-22.5786444,44.55773032-12.23336674,11.60572687-28.14968331,18.78932584-44.81712901,20.22740736-5.27270772.45493375-10.64025834.3410246-15.9538201-.33857941-17.72149488-2.26657897-33.19936179-10.62411878-44.60979068-22.69281692l117.22442012-90.63897367Z" fill="#822121" /><path d="M152.52513285,57.96959906l-114.51744186,88.54507255c-.86288391-1.922872-1.63653085-3.89001681-2.33630166-5.88846932l-2.50801531,1.91053084c.63904824,1.75619355,1.3387244,3.49367844,2.10725198,5.20623159.37640391.83866805,1.11650665,1.45849437,2.00821011,1.68186336.32622338.08169579.65940323.10698176.9865569.07875466.56722852-.04894096,1.11608805-.25894743,1.57737201-.61559406l114.51744186-88.54507255c.72724069-.56233791,1.15651408-1.42702452,1.16480792-2.34624008s-.40532174-1.79155263-1.12228735-2.36687745c-1.17328899-.94150675-2.37692081-1.83849235-3.59866025-2.70677657l-2.49887656,1.90355489c1.44506934,1.00069964,2.85413225,2.04702172,4.2199422,3.14302214Z" fill="#822121" /><path d="M168.97273729,39.08287448l-2.48415936,1.89236064c25.22146504,20.36427476,39.64492347,52.95476461,35.23933805,87.40116553-2.81309785,21.99443495-13.20424049,42.49560235-29.25933557,57.72714629-15.83369536,15.02136545-36.45577868,24.32092471-58.06756224,26.18560795-6.82930244.58923808-13.77230472.4429125-20.63592238-.43486844-34.93869191-4.46866442-63.15296213-27.20487537-76.28129147-57.37356213l-2.48904482,1.89609031c13.64115174,30.77148839,42.56501616,53.87120383,78.38971671,58.4532121,7.20277075.92117516,14.32283661,1.04781268,21.27442642.44802355,45.65581479-3.93922289,83.99439224-39.21547705,90.04475364-86.52103003,4.51683777-35.31617848-10.07435481-68.66709811-35.73091897-89.67414576Z" fill="#822121" /></g></g><g id="l"><g id="m"><path d="M19.64202344,197.27766927c.08789062-1.45507812-.43261719-2.93554688-1.46484375-4.16894531l-2.21386719-2.64453125c-.56347656-.67285156-.71777344-1.02441406-.74853516-1.20117188-.01367188-.08105469-.02392578-.13964844.13916016-.27636719.45849609-.38378906,1.08789062-.25195312,1.53466797-.07519531.73779297.29492188,1.55273438.94433594,2.29394531,1.83007812.50976562.609375.87304688,1.18945312,1.14111328,1.82128906.16306686.39160156.48486328,1.10644531.81054688,1.49707031.49316406.58886719,1.14794922.63671875,1.75341797.1328125.76708984-.64257812,1.03320312-1.70800781.74951172-3-.23095703-1.05273438-.80615234-2.18554688-1.578125-3.10742188-1.18115234-1.41113281-2.83642578-2.34082031-4.66162109-2.62011719-1.76660156-.26855469-3.43798828.125-4.58154297,1.08203125-.97460938.81640625-1.49658203,1.984375-1.46875,3.2890625.02441406,1.17285156.50048828,2.39648438,1.30615234,3.359375.23388672.27929688.74316406.82714844,1.25927734,1.38183594.51416016.55273438,1.03515625,1.11230469,1.27880859,1.40332031.43994141.52539062.69482422,1.04199219.73681641,1.49316406.03564453.3828125-.08789062.6953125-.3671875.92871094-.89794922.75488281-2.65234375.14453125-3.90966797-1.35742188-.95361328-1.13964844-1.96142578-3.13671875-2.04150391-4.73242188-.01171875-.53808594-.0703125-1.09375-.41455078-1.50390625-.23291016-.27929688-.54980469-.44921875-.89208984-.47949219-.34521484-.03320312-.69238281.08007812-.97119141.31347656-.41992188.3515625-.54003906.87011719-.6015625,1.33203125-.42041016,2.85449219.22265625,5.25488281,1.96630859,7.33789062,1.31933594,1.57519531,2.87988281,2.57617188,4.51318359,2.89453125.35888672.06933594.71630859.10351562,1.06884766.10351562,1.24560547,0,2.43164062-.43066406,3.41845703-1.25683594,1.16601562-.97558594,1.85644531-2.31738281,1.94482422-3.77636719Z" fill="#c13a3a" /><path d="M33.47698438,195.14485677c.52734375-.54492188.89599609-1.29980469,1.01123047-2.07226562.12597656-.84277344-.07177734-1.58789062-.54296875-2.04296875-.81201172-.78613281-1.76904297-.6171875-2.84619141.49511719-5.07080078,5.24414062-11.37988281,12.48632812-12.98779297,14.52441406-.40478516.51269531-1.24707031,1.578125-.35058594,2.44335938.21337891.20605469.50488281.37792969.88574219.37792969.41162109,0,.92724609-.20117188,1.56005859-.77734375.81640625-.74804688,9.27490234-8.81640625,13.27050781-12.94824219Z" fill="#c13a3a" /><path d="M42.78606641,216.45052083c2.52636719-3.32910156,1.75878906-7.86816406-1.78564453-10.55957031-4.45361328-3.38085938-11.42431641-2.6171875-14.625,1.59765625v.00097656c-2.52636719,3.32910156-1.75830078,7.86816406,1.78613281,10.55859375,1.79101562,1.359375,4.10595703,2.09667969,6.50097656,2.09667969.42724609,0,.85693359-.0234375,1.28662109-.07128906,2.83544922-.31347656,5.32714844-1.63476562,6.83691406-3.62304688ZM39.4789375,214.6546224c-1.8828125,2.48242188-6.31738281,2.95703125-8.95166016.95605469-.95410156-.72363281-1.57128906-1.69824219-1.73779297-2.7421875-.1640625-1.03125.11816406-2.09082031.79541016-2.98339844.91259766-1.20214844,2.44384766-1.99707031,4.20019531-2.18066406.25830078-.02636719.515625-.04003906.77148438-.04003906,1.48193359,0,2.89990234.4453125,3.97949219,1.26464844,1.97509766,1.49902344,2.36279297,3.85351562.94287109,5.72558594Z" fill="#c13a3a" /><path d="M59.64739453,217.15657552c-2.64111328-1.30566406-5.87597656-1.30957031-8.58154297-.11816406.11767578-.20605469.22216797-.40136719.31298828-.58496094.28808594-.58398438.35789029-1.234375.19677734-1.83203125-.17041016-.63378906-.58154297-1.13867188-1.15820312-1.42285156-1.01171875-.50097656-1.87402344-.04882812-2.56005859,1.33886719-3.38525391,6.85644531-6.63037109,14.34863281-7.85351562,17.47949219-.48974609,1.24414062-.37158203,2.05664062.35205078,2.4140625.21582031.10644531.41699219.15234375.60302734.15234375.81054688,0,1.34277344-.85839844,1.60595703-1.28320312.24511719-.43652344,2.13085938-3.94335938,3.46240234-6.45605469.58740234,2.13476562,2.14111328,3.96484375,4.36132812,5.06152344,4.68359375,2.31347656,10.62060547.26953125,12.95751953-4.46191406.98046875-1.98632812,1.13916016-4.02636719.45751953-5.90136719-.67578125-1.86035156-2.11328125-3.37695312-4.15625-4.38574219ZM59.75823438,226.30696615c-1.375,2.78320312-5.20800781,3.92773438-8.20214844,2.44921875-2.33740234-1.15527344-3.29003906-3.49804688-2.26611328-5.57128906.97363281-1.97167969,3.24707031-3.14746094,5.55664062-3.14746094.96240234,0,1.93164062.20507812,2.81542969.640625,2.30761719,1.13964844,3.16992188,3.45410156,2.09619141,5.62890625Z" fill="#c13a3a" /><path d="M75.55315625,229.37434896c-.92724609-.3515625-3.64160156-1.19238281-4.94580078-1.59765625l-.14306641-.04394531c-1.07177734-.33203125-1.87304688-.5-2.45019531-.51464844-.95703125-.03808594-1.28125.39160156-1.39013672.74511719-.25292969.81640625.09375,1.54785156.46728516,2.15625.30859375.52539062.76611328.8671875,1.43994141,1.07617188,2.109375.65234375,3.08154297.80859375,5.83544922,1.203125.1171875.01757812.23291016.02636719.34667969.02636719.90673828,0,1.68017578-.53808594,1.94335938-1.390625.33642578-1.08398438-.74121094-1.51464844-1.10351562-1.66015625Z" fill="#c13a3a" /><path d="M89.07171094,218.94661458c-1.98144531-.35839844-3.49121094-.01757812-4.61181641,1.04589844-1.04248047.98925781-1.73144531,2.57226562-2.16943359,4.98144531-.09619141.52734375-.21435547,1.30273438-.34277344,2.15332031-.32275391-.04785156-.58544922-.09570312-.78808594-.1328125-.5234375-.07421875-1.91845703-.28222656-2.21142578,1.32714844-.25732422,1.41601562.54931641,2.35546875,2.47558594,2.81152344-.35449219,2.953125-.73632812,6.390625-.96435547,8.6875-.21289062,1.83398438.78808594,2.16210938,1.10058594,2.21972656.08398438.01464844.1640625.02246094.24023438.02246094,1.02685547,0,1.36572266-1.30761719,1.48486328-1.76855469.29345703-1.25976562,1.09423828-5.32617188,1.74755859-8.7421875,2.41064453.13183594,5.00732422.125,6.06054688-.02441406.36572266-.05273438,1.47900391-.21191406,1.67138672-1.27148438.09326172-.50976562-.08740234-.95117188-.52246094-1.27734375-.38769531-.29003906-.98632812-.50195312-1.8828125-.66503906-.67285156-.12304688-2.63134766-.39648438-4.58105469-.66308594l.44970703-2.47363281c.22363281-1.22753906.44335938-1.91992188.73535156-2.31640625.19628906-.265625.47705078-.49414062,1.20507812-.36035156,1.56833854.28515625,2.98242188,1.89160156,4.01025391,3.05859375.4375.51269531,1.04736328.65820312,1.22558594.69140625.78417969.14257812,1.44335938-.37011719,1.60205078-1.24609375.36621094-2.01269531-1.71484375-5.29003906-5.93457031-6.05761719Z" fill="#c13a3a" /><path d="M106.1195625,227.72200521c-2.71777344-.14453125-5.54101562,2.05273438-7.54199219,5.63085938.02587891-.40917969.04492188-.77539062.05908203-1.06054688.07714844-1.57714844-.76806641-3.32519531-2.26757812-3.3984375-.96386719-.06152344-1.64013672.64257812-1.69287109,1.71582031-.05078125,1.05859375.40527344,6.11621094.90527344,11.42285156.07177734.76953125.19140625,2.05566406,1.43847656,2.11621094.02880859.00195312.05664062.00195312.08447266.00195312.74804688,0,1.30126953-.48144531,1.45507812-1.27832031,1.09570312-5.86230469,2.68457031-9.68652344,7.24023438-10.640625,1.16845703-.25488281,2.27246094-.49609375,2.33935547-1.88378906.02880859-.5859375-.14355469-1.20214844-.47216797-1.69140625-.38427734-.57324219-.93408203-.90527344-1.54736328-.93457031Z" fill="#c13a3a" /><path d="M124.52678906,228.36848958c-1.78222656-1.42773438-4.046875-2.08007812-6.38378906-1.85644531-2.64599609.26171875-5.07910156,1.58984375-6.85058594,3.74023438-1.70703125,2.07226562-2.54882812,4.65234375-2.30859375,7.07714844.40869141,4.12988281,3.91845703,7.00097656,8.35253906,7,.34082031,0,.6875-.01660156,1.03808594-.05078125,3.08642578-.30566406,6.27783203-1.921875,7.93652344-4.01660156.15869141-.19335938.64160156-.78320312.57177734-1.4921875-.07714844-.78027344-.77441406-1.28515625-1.67041016-1.1953125-.61425781.06054688-.97753906.375-1.47900391.80859375-1.51464844,1.30078125-3.39746094,2.12011719-5.30078125,2.30859375-1.67382812.17089844-3.06933594-.18652344-4.03369141-1.01953125-.79248047-.68359375-1.27050781-1.66796875-1.42529297-2.92871094,1.47265625.01269531,3.63037109-.11035156,6.4609375-.38964844l6.26416016-.61914062c.66552734-.06640625,1.14648438-.32910156,1.42919922-.78320312.24755859-.39648438.33398438-.93164062.26416016-1.63574219-.18066406-1.83007812-1.22509766-3.6328125-2.86523438-4.94726562ZM123.19036328,232.18098958l-4.63330078.61621094-.00097656.00097656c-2.02880859.27441406-3.87695312.66015625-5.11572266.99023438.81103516-1.65332031,2.57324219-3.19921875,5.14453125-3.45410156.22216797-.02148438.44091797-.03222656.65625-.03222656,1.47460938,0,2.77148438.50976562,3.62158203,1.4375.12109375.13574219.25634766.29785156.32763672.44140625Z" fill="#c13a3a" /><path d="M147.80266797,232.23860677c-.32958984-.13769531-.72705078-.15234375-1.11669922-.04003906-.59423828.171875-.89453125.546875-1.30859375,1.06445312-1.25439453,1.5546875-2.95703125,2.70214844-4.79443359,3.23242188-1.61572266.46777344-3.05322266.37304688-4.15234375-.27148438-.90380859-.52929688-1.55273438-1.41015625-1.93359375-2.62207031,1.43701172-.24414062,3.54589844-.765625,6.28369141-1.55566406l6.04882812-1.74609375c1.22558594-.35351562,1.63867188-1.25683594,1.22705078-2.68554688-.51025391-1.76660156-1.86474609-3.35058594-3.71630859-4.34570312-2.01171875-1.08007812-4.35986328-1.31640625-6.61523438-.66699219-2.55517578.73730469-4.70703125,2.48535156-6.05908203,4.921875-1.30273438,2.34765625-1.66259766,5.03710938-.98681641,7.37890625.609375,2.11132812,2.02441406,3.7890625,3.98388672,4.72558594,1.12744141.5390625,2.38964844.81152344,3.70068359.81152344.92333984,0,1.87109375-.13574219,2.8125-.40722656,2.98046875-.86132812,5.82617188-3.02929688,7.07666016-5.38867188.12109375-.21972656.49023438-.88671875.29199219-1.57226562-.11035156-.38183594-.37402344-.67773438-.7421875-.83300781ZM143.71770703,227.26106771l-4.4453125,1.44628906-.00146484.00097656c-1.94335938.63867188-3.69140625,1.35351562-4.85107422,1.90332031.49755859-1.7734375,1.95068359-3.61523438,4.43310547-4.33105469.58642578-.16894531,1.16601562-.25292969,1.72119141-.25292969,1.03808594,0,1.99121094.29199219,2.74072266.85742188.14404297.11230469.30712891.24804688.40283203.37597656Z" fill="#c13a3a" /><path d="M153.89690625,229.72005208c-.90771484.38769531-1.62646484,1.41210938-1.05810547,2.74707031.30419922.71679688.87011719,1.34375,1.55175781,1.72070312.43896484.24316406.8984375.36621094,1.33398438.36621094.28613281,0,.56152344-.05273438.81445312-.16113281.47851562-.203125.85400391-.59179688,1.05712891-1.09472656.23242188-.57617188.21289062-1.23925781-.05517578-1.86816406-.62548828-1.47070312-2.32519531-2.26953125-3.64404297-1.70996094Z" fill="#c13a3a" /><path d="M162.72307813,211.92415365c-4.84130859,2.79980469-6.83740234,9.52539062-4.18701172,14.109375h.00048828c1.03417969,1.7890625,2.67382812,3.01171875,4.6171875,3.44335938.52148438.11621094,1.05517578.17285156,1.59326172.17285156,1.42333984,0,2.87890625-.40039062,4.22021484-1.17675781,2.29541016-1.32617188,4.07519531-3.65917969,4.88427734-6.39941406.80761719-2.73730469.55371094-5.546875-.69677734-7.70898438-2.09277344-3.62011719-6.57617188-4.66894531-10.43164062-2.44042969ZM167.6351875,225.34798177c-1.03662109.59960938-2.17333984.79296875-3.20263672.54101562-1.01513672-.24707031-1.88330078-.91796875-2.44433594-1.88769531-1.58886719-2.74804688-.33349609-6.94140625,2.58349609-8.62890625.74023438-.42773438,1.53173828-.6484375,2.29785156-.6484375.30712891,0,.61035156.03515625.90478516.10742188,1.01513672.24707031,1.88330078.91796875,2.44433594,1.88769531,1.56005859,2.69824219.28027344,6.97167969-2.58349609,8.62890625Z" fill="#c13a3a" /><path d="M182.50872266,203.45442708c.70263672-.96875,1.36621094-1.88378906.49316406-2.96386719-.76611328-.94824219-2.25732422-1.42382812-3.25537109-.61621094-2.10351562,1.69921875-2.76904297,5.21875-1.88134766,9.22265625-.23535156-.29980469-.46044922-.58203125-.66162109-.83105469-.48681641-.6015625-1.15966797-1.07714844-1.84716797-1.30273438-.80957031-.26367188-1.55810547-.16796875-2.10693359.27539062-.38574219.31054688-.59619141.73828125-.59326172,1.203125.00292969.40917969.16601562.82617188.47216797,1.20507812.66357422.8203125,4.37060547,4.29394531,8.27832031,7.92382812.40429688.37597656,1.00341797.93359375,1.66650391.93359375.26367188,0,.53808594-.08886719.81396484-.3125.61572266-.49609375.73193359-1.25292969.30029297-1.97753906-3.08398438-5.10449219-4.44287109-9.01660156-1.67871094-12.75976562Z" fill="#c13a3a" /><path d="M207.87981641,198.25227865c-1.36669922-1.28125-3.07080078-1.71679688-4.92919922-1.24804688-1.67285156.41796875-3.41064453,1.54980469-5.02490234,3.27246094-.18945312.20214844-.40917969.44726562-.63769531.70214844-.12548828.140625-.25341797.28320312-.38085938.42382812-.19433594-.19335938-.37109375-.37890625-.53613281-.56445312,2.15722656-3.45019531,1.97753906-7.83203125-.46533203-10.12207031-1.24804688-1.16894531-2.93408203-1.58691406-4.69335938-1.18066406-.52197266-2.43066406-.88964844-3.44433594-1.40429688-3.92773438-.56494141-.52734375-1.55712891-.6875-2.40185547.21289062-.78955078.84277344-.55371094,1.73339844-.31005859,2.32421875.203125.51171875.76611328,1.58398438,1.37841797,2.73730469-.34667969.27636719-.65771484.5625-.94335938.8671875-3.16845703,3.37988281-3.47021484,8.87988281-.63330078,11.54003906,1.99023438,1.86425781,4.95507812,1.7890625,7.38378906-.12792969.27978516.515625.60498047,1.09179688.83005463,1.45507812.1118399.18847656.22756255.3828125.42092193.56347656.3046875.28613281.64550781.3671875.97509766.44433594l.19775391.04882812c.34472656.0859375.88867188.15332031,1.37109375.08398438.54980469-.06738281.98046875-.27539062,1.31787109-.63476562.14697266-.15625.34912109-.42480469.58984375-.74804688.33349609-.44726562.74804688-1.00292969,1.19628906-1.48144531.83789062-.89355469,1.92333984-1.66015625,2.90283203-2.05078125.56054688-.22265625,1.58300781-.51953125,2.14355469.0078125.49414062.46289062.32275391,1.32421875.17675781,1.79589844-.27929688.90332031-.90087891,1.90039062-1.75097656,2.80761719-.81738281.87207031-3.85839844,3.73925781-8.6484375,4.02832031-.45361328.01464844-.96777344.03125-1.36914062.45996094-.43701172.46582031-.60253906,1.24707031.24462891,2.04199219l.00048828.00097656c.70263672.65820312,1.73388672.99511719,2.97167969.99511719.74951172,0,1.57519531-.12402344,2.44873047-.37402344,2.2734375-.65039062,4.57128906-2.08398438,6.30517578-3.93457031,1.54052734-1.64355469,2.56542969-3.51757812,2.88574219-5.27734375.36914062-2.02929688-.18798828-3.80664062-1.61181641-5.14160156ZM193.18352734,199.69173177c-.59375.63378906-1.29736328,1.04101562-1.98095703,1.14648438-.64746094.10253906-1.22705078-.06835938-1.67773438-.49121094-.61035156-.57128906-.89794922-1.54980469-.78955078-2.68457031.11230469-1.17773438.6328125-2.33984375,1.42724609-3.1875.72900391-.77832031,1.59082031-1.1875,2.36474609-1.1875.49267578,0,.95019531.16601562,1.31591797.50878906,1.33105469,1.24804688,1.01074219,4.11328125-.65966797,5.89550781Z" fill="#c13a3a" /></g></g></svg>