<?xml version="1.0" encoding="UTF-8"?><svg xmlns="http://www.w3.org/2000/svg" xmlns:cc="http://creativecommons.org/ns#" xmlns:dc="http://purl.org/dc/elements/1.1/" xmlns:rdf="http://www.w3.org/1999/02/22-rdf-syntax-ns#" viewBox="0 0 206.01533713 253.32595891"><title>not-slop.org</title><metadata><rdf:RDF><cc:Work rdf:about=""><dc:format>image/svg+xml</dc:format><dc:type rdf:resource="http://purl.org/dc/dcmitype/StillImage" /><dc:title>not-slop.org</dc:title><cc:license rdf:resource="https://opensource.org/licenses/MIT" /><dc:creator><cc:Agent><dc:title>https://github.com/octogonz</dc:title></cc:Agent></dc:creator><dc:description>Copyright (c) Pete Gonzalez. All rights reserved. Licensed under the MIT license.</dc:description></cc:Work></rdf:RDF></metadata><g><path d="M206.00680666,113.87804224c-.0078125-.77880859-.02294922-1.55664062-.04785156-2.33203125l-.03466797-.953125c-.03173828-.765625-.07275391-1.52929688-.12109375-2.28955078l-.04785156-.7734375c-.07275391-1.01464844-.15771484-2.02734375-.25927734-3.02685547l-.03515625-.31298828c-.09375-.90234375-.20117188-1.80029297-.31787109-2.69433594l-.11572266-.83740234c-.10546875-.75683594-.21923828-1.51171875-.34179688-2.265625l-.12744141-.77929688c-.33984375-1.9921875-.74169922-3.99072266-1.19384766-5.93896484l-.14599609-.60839844c-.18896484-.79052734-.38671875-1.57763672-.59472656-2.36816406l-.18652344-.69677734c-.23388672-.86132812-.47753906-1.71923828-.73339844-2.57226562l-.08837891-.30029297c-.30224609-.99804688-.62011719-1.99072266-.95703125-2.99267578l-3.33929443,1.05371094h0l3.28167725-1.21923828c-.30224609-.89208984-.61865234-1.77880859-.94384766-2.65820312l-.20361328-.54492188c-.31103516-.82617188-.63183594-1.6484375-.96728516-2.47460938l-.14111328-.35058594c-.77783203-1.89550781-1.62597656-3.79736328-2.51611328-5.64160156l-.15576172-.31884766c-.40722656-.83691406-.82568359-1.66748047-1.2578125-2.49804688l-.15576172-.30029297c-1.43896484-2.74267578-3.02636719-5.4609375-4.71240234-8.0703125l-.13720703-.21240234c-1.71044922-2.6328125-3.56152344-5.21679688-5.55419922-7.74658203-4.62597656-5.86230469-9.89648438-11.22949219-15.66552734-15.953125-14.90722656-12.20605469-32.92822266-19.95458984-52.11523438-22.40869141-4.37597656-.55957031-8.81445312-.84326172-13.19238281-.84326172-.89160156,0-1.79052734.01269531-2.71875.03857422l-6.98486328-6.96044922c-3.74121094-3.72851562-8.92089844-5.4765625-14.58544922-4.92822266-5.30957031.51367188-10.45410156,3.02490234-14.48632812,7.07128906-.30712891.30859375-.63769531.62597656-.97753906.953125-1.91748047,1.84521484-4.41259766,4.24707031-5.33105469,7.26318359-5.30712891,3.18994141-9.42138672,7.84179688-11.95556641,13.54199219l-.234375.52783203C20.90963869,46.04991724,4.61276369,72.39317896.83981448,101.89269068c-2.52636719,19.75390625.67285156,39.6484375,9.25097656,57.53125l.24609375.50292969c.36279297.74609375.734375,1.48828125,1.11523438,2.22558594l.32519531.625c.42382812.80761719.85791016,1.61132812,1.34179688,2.4765625l.08447266.15429688c.50244141.89160156,1.01855469,1.77539062,1.55078125,2.66015625l.24462891.3984375c.43994141.72167969.88867188,1.43847656,1.34570312,2.14941406l.39257812.60644531c.46728516.71582031.94238281,1.42578125,1.42529297,2.12597656l.25195312.37011719c.58154297.8359375,1.17431641,1.66308594,1.78271484,2.48535156l.21240234.28222656c.52197266.70117188,1.05371094,1.39355469,1.59765625,2.08789062l.45947266.578125c.50537109.63476562,1.01855469,1.26269531,1.54345703,1.890625l.37353516.44921875c.65380859.7734375,1.31738281,1.5390625,1.98925781,2.28710938l.13525391.1484375c.61962891.6875,1.24951172,1.36523438,1.88525391,2.03320312l.52148438.54296875c.54541016.56542969,1.09765625,1.12402344,1.66113281,1.68359375l.49023438.48632812c1.42578125,1.39257812,2.90625,2.7578125,4.39599609,4.05273438l.58837891.50585938c.58105469.49804688,1.16796875.99023438,1.76025391,1.47460938l.60742188.49609375c.76513672.6171875,1.53710938,1.22753906,2.32128906,1.82324219l.08837891.06738281c.77587891.58886719,1.56298828,1.1640625,2.36132812,1.734375l.61669922.43359375c.62304688.43847656,1.25146484.87011719,1.89160156,1.29980469l.70166016.46777344c.72607422.47851562,1.45898438.94921875,2.19775391,1.40917969l.32666016.20605469c.8515625.52539062,1.71240234,1.03808594,2.57763672,1.53808594l.64453125.36523438c.66699219.37890625,1.33837891.75097656,2.01513672,1.11621094l.79785156.42480469c.71337891.37695312,1.43212891.74511719,2.14550781,1.09960938l.55322266.27734375c.90234375.44238281,1.8125.87207031,2.7265625,1.28613281l.62402344.27636719c.72021484.32226562,1.4453125.63574219,2.17822266.94238281l.86572266.35839844c.71533203.29101562,1.43408203.57324219,2.1484375.84570312l.71630859.27539062c.94824219.35351562,1.90234375.6953125,2.87744141,1.02636719l.53808594.17578125c.78759766.26367188,1.57958984.51660156,2.37597656.76074219.30810547.09375.61669922.18652344.92236328.27636719.72753906.21582031,1.45898438.42382812,2.18847656.62109375l.83642578.22851562c.99169922.26074219,1.98876953.51171875,2.98583984.7421875l.38623047.08496094c.88427734.20117188,1.7734375.390625,2.66357422.56933594.31347656.0625.62890625.12207031.95263672.18261719.74560547.14257812,1.49462891.27636719,2.24121094.40234375l.9375.15625c1.03320312.16308594,2.07080078.31640625,3.11914062.45117188,1.02929688.13183594,2.05566406.24316406,3.08105469.34472656l.98681641.0859375c.70117188.06152344,1.40234375.11914062,2.09814453.16601562.3203125.02246094.64013672.04101562.95996094.05957031l.18408203.01074219c.65625.03808594,1.31152344.06933594,1.95751953.09277344.38330078.015625.76660156.02832031,1.16162109.04003906.67236328.01660156,1.34326172.02636719,2.01123047.03125l.27050781.00488281c.16015625.00390625.3203125.00683594.47998047.00683594l.23583984-.00488281c1.23876953-.00292969,2.53466797-.03125,3.85791016-.08300781l.80273438-.03710938c1.50195312-.07128906,2.75146484-.15234375,3.93066406-.25488281,24.62988281-2.125,47.7265625-13.12207031,65.03613281-30.96582031,1.99267578-2.0546875,3.91992188-4.21484375,5.72802734-6.41894531,1.81835938-2.21777344,3.56542969-4.54101562,5.19189453-6.90332031,9.34716797-13.58007812,15.15380859-28.81347656,17.25927734-45.27539062.13232422-1.03466797.24414062-2.06689453.34521484-3.09716797l.08398438-.94287109c.06591797-.74072266.12402344-1.48046875.17285156-2.21337891.02294922-.33398438.04541016-.66845703.06396484-.99902344.04736328-.82617188.08447266-1.65185547.11230469-2.47167969l.0234375-.61474609c.02832031-1.02197266.04003906-2.04101562.03808594-3.05761719l-.00830078-.75292969Z" fill="#fff" /></g><g><g><path d="M103.13034182,212.97081568c-4.16650391,0-8.39111328-.26953125-12.55517578-.80273438C36.9745801,205.31261256-1.05569334,156.12804224,5.79928713,102.52696802c2.85693359-22.3359375,13.40966797-43.15625,29.71484375-58.62451172,16.07910156-15.25439453,37.02246094-24.69824219,58.97119141-26.59228516,2.77783203-.23974609,5.60253906-.36132812,8.39550781-.36132812,4.16845703,0,8.39404297.27001953,12.55957031.80273438,53.60107422,6.85546875,91.63085938,56.04052734,84.77539062,109.64111328-2.85693359,22.33691406-13.40966797,43.15625-29.71484375,58.625-16.07910156,15.25488281-37.02197266,24.69824219-58.97070312,26.59179688-2.77880859.24023438-5.60449219.36132812-8.39990234.36132812ZM166.17086916,74.02599146c-.32958984,0-.65283203.10888672-.91748047.31347656l-117.22460938,90.63916016c-.33544922.25878906-.54541016.64746094-.578125,1.0703125-.03271484.421875.11474609.83886719.40576172,1.14648438,12.01904297,12.71191406,28.18164062,20.93359375,45.50927734,23.15039062,3.23730469.4140625,6.52685547.62402344,9.77783203.62402344,2.16796875,0,4.35302734-.09375,6.49511719-.27929688,17.00488281-1.46582031,33.2421875-8.79394531,45.72070312-20.63378906,12.82177734-12.16308594,20.78662109-27.88183594,23.03417969-45.45507812,2.21630859-17.32763672-1.67285156-35.03857422-10.95117188-49.87109375-.22460938-.359375-.59033203-.60644531-1.0078125-.68115234-.08740234-.015625-.17578125-.0234375-.26367188-.0234375ZM96.37692385,39.22862818c-17.00488281,1.46777344-33.24267578,8.79541016-45.72119141,20.63378906-12.82128906,12.16308594-20.78613281,27.88134766-23.03417969,45.45556641-1.77294922,13.86230469.30810547,27.91455078,6.01757812,40.63720703.18847656.41894531.55859375.72949219,1.00439453.84082031.12011719.03027344.24267578.04492188.36425781.04492188.32861328,0,.65185547-.10839844.91748047-.31347656l114.51757812-88.54541016c.36376953-.28125.578125-.71337891.58251953-1.17285156.00390625-.45996094-.20263672-.89599609-.56103516-1.18359375-10.87695312-8.72802734-23.953125-14.27880859-37.81494141-16.05175781-3.23730469-.4140625-6.52636719-.62353516-9.77587891-.62353516-2.16845703,0-4.35400391.09375-6.49560547.27832031h-.00097656Z" fill="#c13a3a" /><path d="M102.88247805,18.44899561c4.10461426,0,8.26574707.26599121,12.36761475.79055786,52.7802124,6.75057983,90.22821045,55.18249512,83.47784424,107.96282959-2.81304932,21.99438477-13.20422363,42.49560547-29.25933838,57.72705078-15.8336792,15.02142334-36.45574951,24.32098389-58.06750488,26.18566895-2.73535156.23596191-5.51727295.35565186-8.26843262.35565186-4.10473633,0-8.26580811-.26599121-12.36755371-.79052734C37.98483401,203.92967799.53683596,155.49767115,7.28726321,102.71736719c2.81304932-21.99432373,13.20422363-42.49542236,29.25933838-57.72683716,15.83361816-15.02124023,36.45568848-24.32089233,58.06756592-26.18585205.00408936-.00033569.00817871-.0007019.01226807-.00106812,2.73120117-.23532104,5.5088501-.35461426,8.25604248-.35461426M96.2579053,37.73341944c-.00341797.00030518-.00683594.00057983-.01025391.00088501-17.34179688,1.49649048-33.89996338,8.96868896-46.62426758,21.04016113-13.07507324,12.40420532-21.19769287,28.43292236-23.48962402,46.35333252-1.80792236,14.13562012.31420898,28.46569824,6.13690186,41.44110107.37640381.83868408,1.11645508,1.45849609,2.00823975,1.68188477.24078369.06030273.4854126.08984375.7286377.08984375.6574707,0,1.30438232-.21624756,1.83520508-.62670898l114.51745605-88.54507446c.72729492-.56228638,1.15655518-1.42694092,1.16485596-2.34619141s-.40533447-1.79153442-1.12225342-2.36688232c-11.09240723-8.90124512-24.42730713-14.56182861-38.56311035-16.36978149-3.29931641-.42193604-6.65240479-.63586426-9.96612549-.63586426-2.20794678,0-4.43365479.09533691-6.61566162.28329468M103.14138918,192.46959498c2.21136475,0,4.4407959-.09558105,6.62640381-.28417969,17.34155273-1.49621582,33.89959717-8.96826172,46.62402344-21.03985596,13.07513428-12.40441895,21.19769287-28.43322754,23.48962402-46.35351562,2.2600708-17.67111206-1.70593262-35.73242188-11.16741943-50.85687256-.44940186-.71838379-1.18157959-1.2131958-2.01568604-1.36221313-.17553711-.03134155-.35205078-.04678345-.52764893-.04678345-.65924072,0-1.30578613.21746826-1.83508301.62670898l-117.22436523,90.63897705c-.67028809.51831055-1.09020996,1.29589844-1.15588379,2.14068604-.06573486.8447876.22888184,1.67791748.81103516,2.29364014,12.25622559,12.96337891,28.73797607,21.34735107,46.40905762,23.60754395,3.2989502.42193604,6.65197754.63586426,9.96594238.63586426M102.88247805,15.44899561c-2.86590576,0-5.7086792.12368774-8.52496338.3666687-.00042725.00003052-.00085449.00006104-.00128174.00012207C48.70047121,19.75554468,10.36184817,55.031271,4.31149416,102.33675196c-6.97143555,54.5083313,31.5647583,104.34762573,86.07299805,111.31924438,4.28460693.5479126,8.54016113.8147583,12.74816895.8147583,2.86602783,0,5.70983887-.1237793,8.52630615-.36676025,45.65576172-3.93920898,83.99438477-39.2154541,90.04473877-86.52099609,6.97137451-54.5083313-31.56469727-104.34759521-86.07299805-111.31921387-4.28430176-.5479126-8.54052734-.81478882-12.74822998-.81478882h0ZM35.00772219,145.34062769c-5.42352295-12.08569336-7.69830322-25.75775146-5.89819336-39.83224487,2.20324707-17.22680664,10.01080322-32.634552,22.57861328-44.55749512,12.2333374-11.60568237,28.14984131-18.78939819,44.81744385-20.22769165l.00097656-.00006104c2.11016846-.18206787,4.23583984-.27301025,6.36694336-.27301025,3.19317627-.00003052,6.39892578.20410156,9.58563232.6116333,14.074646,1.80014038,26.73419189,7.44287109,37.06604004,15.73379517l-114.51745605,88.54507446h0ZM103.14138918,189.46965601c-3.19311523,0-6.39892578-.2041626-9.58532715-.61169434-17.72149658-2.26660156-33.19934082-10.62408447-44.60974121-22.69281006l117.22436523-90.63894653c8.80847168,14.08062744,13.00152588,31.16366577,10.73498535,48.88522339-2.20324707,17.22686768-10.01092529,32.63470459-22.57861328,44.55773926-12.23339844,11.60571289-28.14971924,18.78930664-44.81713867,20.22735596-2.11083984.18212891-4.23687744.27313232-6.36853027.27313232h0Z" fill="#822121" /></g></g><g><path d="M94.19117827,167.88200223c6.69266024,4.57191741,13.8098399,11.08759194,22.31143794,11.58697384,9.91193271.58222463,18.73843236-7.05609111,25.96731485-12.79677323,5.28957264-4.20061539-2.18420233-11.58620205-7.4246212-7.4246212-4.68094816,3.71728762-12.03916487,10.62805905-18.69340288,9.68811625-6.03113746-.85192688-12.04568849-6.83056121-16.86117766-10.12013785-5.5938911-3.82132175-10.85201785,5.27341839-5.29955105,9.06644219h0Z" fill="#a5a5a5" stroke="#000" stroke-miterlimit="10" stroke-width="3" /><path d="M105.90120905,175.89255096c1.91923939.10750369,3.93911533-1.1874111,4.93831332-3.35566388.99918298-2.16822022.67135173-4.5450308-.6572431-5.93422915" fill="none" stroke="#000" stroke-miterlimit="10" stroke-width="3" /><path d="M114.73687847,179.31457711c1.88609518-.2633695,3.63183782-1.95155545,4.23584942-4.31755443.60400252-2.36596346-.11890519-4.68436685-1.64795784-5.81958349" fill="none" stroke="#000" stroke-miterlimit="10" stroke-width="3" /><path d="M125.22972085,178.03096104c1.29846234-1.03584106,1.89117656-3.27996096,1.34480517-5.64209054-.54636318-2.36209411-2.06430424-4.11801108-3.68573689-4.47846887" fill="none" stroke="#000" stroke-miterlimit="10" stroke-width="3" /><rect x="131.95133383" y="147.54411409" width="39.69225133" height="37.61573373" rx="7.77452692" ry="7.77452692" transform="translate(-52.80646776 72.26328223) rotate(-22.92360654)" fill="#a5a5a5" stroke="#000" stroke-linejoin="round" stroke-width="3" /><rect x="83.22819676" y="153.33293328" width="21.11111114" height="19.5555548" rx="6.38888871" ry="6.38888871" transform="translate(-42.36688216 33.25116783) rotate(-16.45717546)" fill="#a5a5a5" stroke="#000" stroke-linejoin="round" stroke-width="3" /><rect x="81.20327067" y="95.36063916" width="8.15098402" height="91.86037913" rx="2.99999595" ry="2.99999595" transform="translate(-36.53377444 29.94779371) rotate(-16.4571755)" fill="#727272" stroke="#000" stroke-linejoin="round" stroke-width="3" /><rect x="78.52665535" y="156.80561787" width="16.66666666" height="10.44444445" rx="5.22221674" ry="5.22221674" transform="translate(-42.34376114 31.24531208) rotate(-16.45717556)" fill="#a5a5a5" stroke="#000" stroke-linejoin="round" stroke-width="3" /><rect x="81.47342581" y="167.17332657" width="16.66666666" height="10.44444442" rx="5.22221699" ry="5.22221699" transform="translate(-45.16019446 32.50487482) rotate(-16.45717549)" fill="#a5a5a5" stroke="#000" stroke-linejoin="round" stroke-width="3" /><rect x="75.47332583" y="146.4693868" width="16.66666667" height="10.44444446" rx="5.222217" ry="5.222217" transform="translate(-39.54061036 29.95685034) rotate(-16.45717538)" fill="#a5a5a5" stroke="#000" stroke-linejoin="round" stroke-width="3" /><rect x="93.27721126" y="146.12999426" width="10.44444444" height="13.33333209" rx="5.22221695" ry="5.22221695" transform="translate(-39.25173237 34.16456471) rotate(-16.45717527)" fill="#a5a5a5" stroke="#000" stroke-linejoin="round" stroke-width="3" /><g><g><path d="M79.960242,83.8374294c.31720246-4.78357809-7.92919118-6.03557471-17.31474062-3.89889471-8.59179045,1.95597572-22.57487888-1.08763359-22.89208134,3.6959445s14.9202681,7.22571645,23.71258253,7.80873538c8.79231444.58301893,16.17703697-2.82220708,16.49423942-7.60578517Z" /><path d="M83.18352203,51.11115609c.08709645,2.29017824-.16941764,4.62871481-.81462965,6.94732277l-4.7721938,17.14916385c-2.93157645,10.5347953-13.94939767,16.75558751-24.48419298,13.82401107l-5.72802986-1.59397093c-2.38395626-.66339685-4.5440161-1.74414804-6.43008496-3.13640981-.26471623,8.92539107,5.57164741,17.27619079,14.53640791,19.77086486l5.72802986,1.59397093c10.53490003,2.93160559,21.55273583-3.28923898,24.48431227-13.82403429l4.7721938-17.14916385c2.46145178-8.84537418-.69449597-17.98251498-7.2918126-23.58175461Z" fill="#ffcd9e" stroke="#000" stroke-linejoin="round" stroke-width="3" /></g><g><path d="M69.56816053,16.27739162h5.32776417c13.92954167,0,25.23856219,11.30902052,25.23856219,25.23856219v22.38757836c0,11.55855374-9.38407914,20.94263288-20.94263288,20.94263288h-9.62369376c-13.92954181,0-25.23856245-11.30902064-25.23856245-25.23856245v-18.09164825c0-13.92954196,11.30902076-25.23856272,25.23856272-25.23856272Z" transform="translate(26.7725892 -24.98555444) rotate(23.97154347)" fill="#ffcd9e" stroke="#000" stroke-miterlimit="10" stroke-width="3" /><path d="M53.54943568,42.50949599c-2.40075091-.87448789-5.12411456-.87787462-7.65475787.2154713-5.25595627,2.27079745-7.67590585,8.37243744-5.40512184,13.62836259,2.27079745,5.25595627,8.37243744,7.67590585,13.62839371,5.4051084,2.53064331-1.09334592,4.39476123-3.07875743,5.40346765-5.42627641" fill="#ffcd9e" /><path d="M53.54943568,42.50949599c-2.40075091-.87448789-5.12411456-.87787462-7.65475787.2154713-5.25595627,2.27079745-7.67590585,8.37243744-5.40512184,13.62836259,2.27079745,5.25595627,8.37243744,7.67590585,13.62839371,5.4051084,2.53064331-1.09334592,4.39476123-3.07875743,5.40346765-5.42627641" fill="none" stroke="#000" stroke-linecap="round" stroke-miterlimit="10" stroke-width="3" /><path d="M89.48788083,67.4090851c-.32426439,1.94599384.0022265,3.53888645,1.07570865,4.33738746,2.22954188,1.65842669,6.80711212-.7212963,10.22426858-5.31523263,3.41717669-4.59396352,4.37994502-9.66252768,2.15040314-11.32095437-1.07348215-.79850101-2.69299654-.65308644-4.46353017.21711173" fill="#ffcd9e" /><path d="M89.48788083,67.4090851c-.32426439,1.94599384.0022265,3.53888645,1.07570865,4.33738746,2.22954188,1.65842669,6.80711212-.7212963,10.22426858-5.31523263,3.41717669-4.59396352,4.37994502-9.66252768,2.15040314-11.32095437-1.07348215-.79850101-2.69299654-.65308644-4.46353017.21711173" fill="none" stroke="#000" stroke-linecap="round" stroke-miterlimit="10" stroke-width="3" /><ellipse cx="64.70697514" cy="35.98495023" rx="8.01453194" ry="6.03563517" transform="translate(-5.79947995 58.58470834) rotate(-46.85183578)" fill="#fff" stroke="#000" stroke-miterlimit="10" stroke-width="3" /><ellipse cx="78.32956451" cy="47.41052076" rx="8.01453194" ry="6.03563517" transform="translate(-9.82916183 72.13534887) rotate(-46.85183578)" fill="#fff" stroke="#000" stroke-miterlimit="10" stroke-width="3" /><path d="M99.40143516,35.38074171c4.06367455,2.79580987,4.39329275,8.71820489,2.89531575,13.78416704.73085154-.55720543,1.44348843-1.15789327,2.11630778-1.83308982l.00005459-.00005479c6.64160706-6.66507312,7.56018642-16.51785388,2.05177237-22.00687583l-16.8154375-16.75623957c-5.50841405-5.48902195-15.35784713-4.53565427-21.99945419,2.12941885l-.00005459.00005479c-2.42884292,2.43742448-6.21909961,5.45529462-4.94708812,8.22270878,4.19940467,9.13631053,28.41460836,10.76053174,36.69858391,16.45991054Z" fill="#727272" stroke="#000" stroke-linejoin="round" stroke-width="3" /></g></g><polyline points="150.35649893 110.92550271 157.46929913 90.68224932 160.10525402 111.97621505" fill="#a5a5a5" stroke="#000" stroke-linejoin="round" stroke-width="3" /><rect x="109.74119864" y="110.45748147" width="70.74008375" height="40.56875829" rx="12" ry="12" transform="translate(14.84566398 -14.79708885) rotate(6.15154309)" fill="#a5a5a5" stroke="#000" stroke-linejoin="round" stroke-width="3" /><rect x="120.81685025" y="118.63392494" width="15.55555555" height="15.33333332" rx="7.666659" ry="7.666659" transform="translate(14.27464043 -13.05276585) rotate(6.15154303)" fill="#727272" stroke="#000" stroke-linejoin="round" stroke-width="3" /><rect x="147.77185415" y="121.53911177" width="15.55555555" height="15.33333333" rx="7.66665809" ry="7.66665809" transform="translate(14.74116449 -15.9244964) rotate(6.1515431)" fill="#727272" stroke="#000" stroke-linejoin="round" stroke-width="3" /><rect x="153.67326212" y="86.37288783" width="7.49019645" height="7.49019642" rx="3.74509452" ry="3.74509452" transform="translate(10.56333052 -16.34981096) rotate(6.15154106)" fill="#a5a5a5" stroke="#000" stroke-linejoin="round" stroke-width="3" /></g><g><g><path d="M164.71474098,38.86714168l-18.15751844,13.83165016c1.33005451.93294311,2.63496404,1.90603813,3.90711223,2.92686482.35808492.28766611.5653142.72410458.56086061,1.18370819-.00396711.45956164-.21858914.89171989-.58247001,1.17306448l-114.51756038,88.5444089c-.2306105.17868817-.50482481.28370344-.78843907.30817392-.16345522.01410306-.33023389.00104752-.49352539-.03975423-.44580559-.11150469-.81563471-.42168208-1.00371397-.84065911-.81803155-1.8226579-1.55263346-3.67524235-2.22103614-5.54799635l-18.16378462,13.83641788c13.39589796,30.46875733,41.96947851,53.40388266,77.32014899,57.92570848,6.97050826.89042883,14.02107976,1.0388067,20.95527813.44051812,21.94872752-1.89375505,42.89170519-11.33739899,58.97101343-26.59149355,16.30486681-15.46861389,26.85790841-36.28877317,29.71504194-58.62486704,4.45693356-34.85099414-10.06582718-67.82983208-35.50140731-88.52574468ZM178.39348534,124.60172503c-2.24770113,17.57320504-10.21262381,33.29165001-23.03380348,45.45540385-12.47827089,11.83814978-28.71556147,19.16633039-45.72074164,20.63355193-5.38088734.46426758-10.85592539.34854413-16.2729641-.34461493-17.32843778-2.21686975-33.49056022-10.43903905-45.50963787-23.15115787-.29115384-.30716365-.43835208-.72378679-.40568849-1.14612666s.24262528-.81194782.57810766-1.07025816l117.22444944-90.63934377c.2297215-.17763127.50438031-.283175.78848104-.30768745.12988852-.01120689.26221906-.00547115.39265532.01807147.4171091.07428292.78346955.32153729,1.00807215.68100209,9.27803635,14.83156457,13.16696677,32.54280566,10.95106996,49.87115949Z" fill="#c13a3a" /><path d="M45.9553275,165.93256758c-.06568681.84477203.22888162,1.67788095.81100592,2.2936331,12.25633958,12.96340553,28.73805674,21.34736052,46.40912949,23.60750785,5.52485934.70664563,11.1073314.82498439,16.59232415.35173451,17.34163765-1.49625138,33.89965065-8.96837933,46.62402924-21.03991351,13.07506209-12.40430282,21.19766648-28.43310544,23.48959475-46.35356076,2.26009177-17.67100669-1.70591433-35.73238704-11.16733729-50.85682767-.44940121-.71836134-1.18160106-1.21322134-2.01573438-1.36222334-.26163681-.04671298-.52555768-.05812581-.78539553-.03570678-.56856107.0491172-1.11723078.25990369-1.57724514.61564437l-117.22447568,90.63903973c-.67033137.51828135-1.09020872,1.29590048-1.15589553,2.14067251ZM166.17071193,75.52617765c8.80842193,14.08057931,13.00147699,31.1636819,10.73496408,48.88523233-2.20327368,17.22685641-10.01090048,32.63473197-22.5786444,44.55773032-12.23336674,11.60572687-28.14968331,18.78932584-44.81712901,20.22740736-5.27270772.45493375-10.64025834.3410246-15.9538201-.33857941-17.72149488-2.26657897-33.19936179-10.62411878-44.60979068-22.69281692l117.22442012-90.63897367Z" fill="#822121" /><path d="M149.52516998,56.79555797l-114.51744186,88.54507255c-.86288391-1.922872-1.63653085-3.89001681-2.33630166-5.88846932l-2.50801531,1.91053084c.63904824,1.75619355,1.3387244,3.49367844,2.10725198,5.20623159.37640391.83866805,1.11650665,1.45849437,2.00821011,1.68186336.32622338.08169579.65940323.10698176.9865569.07875466.56722852-.04894096,1.11608805-.25894743,1.57737201-.61559406l114.51744186-88.54507255c.72724069-.56233791,1.15651408-1.42702452,1.16480792-2.34624008s-.40532174-1.79155263-1.12228735-2.36687745c-1.17328899-.94150675-2.37692081-1.83849235-3.59866025-2.70677657l-2.49887656,1.90355489c1.44506934,1.00069964,2.85413225,2.04702172,4.2199422,3.14302214Z" fill="#822121" /><path d="M165.97277443,37.90883339l-2.48415936,1.89236064c25.22146504,20.36427476,39.64492347,52.95476461,35.23933805,87.40116553-2.81309785,21.99443495-13.20424049,42.49560235-29.25933557,57.72714629-15.83369536,15.02136545-36.45577868,24.32092471-58.06756224,26.18560795-6.82930244.58923808-13.77230472.4429125-20.63592238-.43486844-34.93869191-4.46866442-63.15296213-27.20487537-76.28129147-57.37356213l-2.48904482,1.89609031c13.64115174,30.77148839,42.56501616,53.87120383,78.38971671,58.4532121,7.20277075.92117516,14.32283661,1.04781268,21.27442642.44802355,45.65581479-3.93922289,83.99439224-39.21547705,90.04475364-86.52103003,4.51683777-35.31617848-10.07435481-68.66709811-35.73091897-89.67414576Z" fill="#822121" /></g></g><g><path d="M26.14743166,195.38097193c-.55664062-.56835938-1.35009766-.82714844-2.41503906-.80957031-.91894531.00488281-2.36621094.18554688-3.89111328.48925781.50439453-.57226562.87353516-1.27539062,1.03027344-1.97167969.22216797-.98925781.00048828-1.91113281-.60693359-2.53027344-.86865234-.88476562-2.14892578-.84375-3.11572266.10351562-.61132812.59960938-2.31689453,2.85742188-5.27929688,6.79492188l-1.77197266,2.35351562c-.45507812.59570312-1.51171875,1.98242188-.33740234,3.1796875.70751953.72167969,1.68554688.81933594,2.61962891.2578125l.28613281-.17382812c3.10449219-1.88867188,4.73681641-2.88085938,7.81152344-3.79589844-1.30078125,3.05664062-2.30419922,4.40722656-4.59033203,7.48632812-.6640625.89453125-.57128906,1.88964844.25390625,2.72949219.40380859.41113281.83740234.61816406,1.29443359.61816406.13867188,0,.27929688-.01855469.42236328-.05761719.51367188-.13769531.97705078-.51660156,1.51416016-1.04394531,2.27685547-2.23339844,5.16601562-6.48535156,6.53564453-9.13964844.52246094-1.00488281,1.61035156-3.09375.23974609-4.49023438Z" fill="#c13a3a" /><path d="M43.20846682,210.59190943c-.40185547-2.03222656-1.62695312-3.88867188-3.45068359-5.22558594-2.23974609-1.64257812-5.22363281-2.36621094-8.18164062-1.99023438-2.96630859.37792969-5.56103516,1.81347656-7.11865234,3.93847656-2.63964844,3.60058594-1.75097656,8.42773438,2.06835938,11.22949219,1.9375,1.41992188,4.30712891,2.1015625,6.65576172,2.1015625,3.37548828,0,6.70605469-1.40722656,8.64404297-4.04882812,1.30517578-1.78027344,1.79589844-3.91308594,1.3828125-6.00488281ZM37.68209963,214.26378443l-.00048828.00097656c-.80957031,1.10351562-2.20556641,1.84765625-3.83007812,2.04199219-1.63085938.19433594-3.23730469-.18847656-4.40869141-1.046875-1.76318359-1.29199219-2.14550781-3.35351562-.93017578-5.01171875.99902344-1.36230469,2.82714844-2.09179688,4.66455078-2.09179688,1.27929688,0,2.56347656.35351562,3.57470703,1.09570312.86181641.63183594,1.42529297,1.48339844,1.58691406,2.39746094.15966797.90722656-.06738281,1.81054688-.65673828,2.61425781Z" fill="#c13a3a" /><path d="M57.95260744,220.54796412c.37353516-.71875.29003906-1.45019531-.23535156-2.05957031-.36621094-.42480469-.96142578-.83007812-2.0546875-1.39746094-.39550781-.20507812-1.63085938-.79980469-3.13378906-1.5.43505859-.81347656.88134766-1.671875,1.36523438-2.60351562.37158203-.71582031.48974609-1.53613281.33251953-2.30859375-.16992188-.83496094-.65332031-1.51464844-1.32519531-1.86328125-.96972656-.50292969-1.69433594-.31152344-2.13037109-.06347656-.57666016.32910156-.9296875.90429688-1.20410156,1.43261719-.40087891.77246094-.99072266,1.90917969-1.671875,3.26074219-.10351562-.04882812-.20703125-.09960938-.31054688-.15332031-1.80957031-.79882812-2.70605469.02050781-3.13671875.85058594h-.00048828c-.73730469,1.42089844-.27587891,2.91894531,1.16357422,3.99707031-1.47216797,3.06542969-2.70800781,5.78222656-3.35498047,7.37695312-.84277344,2.09472656.27490234,2.87207031.63867188,3.06054688.19238281.09960938.45117188.19042969.75439453.19042969.57128906,0,1.30126953-.32128906,2.04833984-1.5078125.95117188-1.48925781,2.45117188-3.91015625,4.33251953-7.17871094,2.14160156.70214844,4.40917969,1.27050781,5.44433594,1.42382812,1.59375.25292969,2.23779297-.49121094,2.47851562-.95703125Z" fill="#c13a3a" /><path d="M65.81198244,225.60362818c-.94873047-.4296875-3.78125-1.50488281-5.00244141-1.96875-1.24462891-.47265625-3.83300781-1.45507812-4.49169922.27734375-.37597656.99121094-.00976562,1.90332031.35498047,2.58886719.33056641.65136719.86621094,1.11035156,1.63574219,1.40136719,2.1015625.79882812,3.07226562,1.01757812,5.8203125,1.58984375.19287109.04101562.38476562.06054688.57373047.06054688,1.05029297,0,1.99560547-.61132812,2.36767578-1.59082031.21191406-.55761719.33251953-1.60449219-1.25830078-2.35839844Z" fill="#c13a3a" /><path d="M77.9745801,229.11534693l-3.35449219-.79980469c-.54492188-.12988281-.82763672-.24511719-.96728516-.31738281.26416016-.55175781,1.60498047-.85644531,3.48291016-.41015625.72070312.171875,1.31494141.40234375,1.86230469.72265625.47509766.28320312,1.15332031.64746094,1.68310547.7734375,1.01904297.24316406,1.83984375-.26953125,2.08935547-1.31054688.54882812-2.30273438-1.94873047-4.35449219-4.68066406-5.00683594-1.90869141-.453125-3.91699219-.19726562-5.65478516.72558594-1.70605469.90625-2.90234375,2.33886719-3.28125,3.92871094-.71044922,2.97753906,1.58154297,5.40625,4.20898438,6.03320312.35888672.0859375,1.10351562.22265625,1.85742188.36132812.73388672.13476562,1.47705078.27050781,1.84033203.35742188.25927734.06152344,1.54296875.40722656,1.37255859,1.12207031-.11083984.46386719-.62158203.71484375-.91650391.82324219-.66845703.24609375-1.53076172.265625-2.42822266.04980469-1.36376953-.32519531-3.24511719-1.26074219-4.18408203-2.3984375-.38720703-.49707031-.83789062-.97851562-1.51025391-1.13867188-.49951172-.12109375-1.00537109-.03515625-1.41943359.234375-.38916016.25390625-.66455078.65039062-.77539062,1.11425781-.16845703.703125.10302734,1.32226562.36035156,1.78515625,1.43847656,2.671875,3.49316406,4.29394531,6.28076172,4.95898438.82910156.19824219,1.63476562.29589844,2.40576172.29589844,1.19238281,0,2.30029297-.23535156,3.27490234-.703125,1.63330078-.78417969,2.76318359-2.18359375,3.18164062-3.93847656.7890625-3.30957031-1.24365234-6.43164062-4.72802734-7.26269531Z" fill="#c13a3a" /><path d="M89.33004885,218.01964381c-.81347656-.1015625-2.22900391.0859375-2.54541016,2.53027344-.93457031,7.25390625-1.66650391,16.85546875-1.73730469,19.45898438-.01757812.609375-.07080078,2.46191406,1.61572266,2.6796875.0703125.00878906.15283203.015625.24511719.015625.62207031,0,1.66357422-.30078125,2.03076172-2.20117188.20800781-1.08886719,2.171875-12.6328125,2.90820312-18.34375.22851562-1.77148438-.79931641-3.91699219-2.51708984-4.13964844Z" fill="#c13a3a" /><path d="M103.72604494,225.72765162c-5.87744141-.08300781-11.26806641,4.87597656-11.359375,10.43261719-.03613281,2.20703125.79541016,4.23144531,2.34228516,5.69921875,1.50244141,1.42675781,3.57519531,2.23242188,5.83642578,2.26953125.05566406.00097656.11035156.00097656.16601562.00097656,5.78955078,0,11.10302734-4.93066406,11.19335938-10.43261719.07324219-4.46484375-3.44287109-7.890625-8.17871094-7.96972656ZM101.10934573,239.76476099c-.02685547,0-.05419922,0-.08154297-.00097656-1.06835938-.01757812-2.02050781-.38671875-2.68066406-1.04003906-.65429688-.64746094-.99169922-1.51660156-.97509766-2.51269531.04638672-2.83789062,3.03759766-5.57617188,6.06542969-5.57617188.02685547,0,.0546875,0,.08203125.00097656,1.06835938.01757812,2.02001953.38671875,2.68017578,1.04003906.65429688.64746094.99169922,1.51660156.97509766,2.51269531-.04638672,2.83789062-3.03759766,5.57617188-6.06542969,5.57617188Z" fill="#c13a3a" /><path d="M125.40719729,223.65050318c-2.63378906.47851562-5.03320312,2.05566406-6.62548828,4.21875-.48828125-1.33398438-1.78125-2.1484375-3.14599609-1.89550781-.80859375.14746094-2.09960938.75683594-1.65917969,3.18261719,1.37158203,7.54101562,3.23632812,15.50878906,4.12255859,18.75976562.47460938,1.76074219,1.34863281,2.11816406,1.97998047,2.11816406.11376953,0,.21972656-.01171875.31396484-.02929688,1.71289062-.31152344,1.56005859-2.13671875,1.50585938-2.78027344-.05419922-.42382812-.50097656-3.48632812-.90087891-6.14160156,1.70947266.96679688,3.79394531,1.30566406,5.94482422.91308594,2.62060547-.47558594,4.92089844-1.98242188,6.47705078-4.2421875,1.56201172-2.26757812,2.15576172-4.98339844,1.67138672-7.64550781-.85205078-4.68554688-4.83398438-7.33886719-9.68408203-6.45800781ZM126.09079104,228.64562037c.29638672-.0546875.58544922-.08007812.86523438-.08007812,1.83691406,0,3.26123047,1.12792969,3.59228516,2.94726562.24462891,1.34472656-.12841797,2.75585938-1.05078125,3.97363281-.91210938,1.20410156-2.25097656,2.04296875-3.67382812,2.30175781-1.12744141.20507812-2.20898438.03417969-3.04589844-.48046875-.81445312-.50195312-1.33789062-1.27636719-1.51318359-2.24023438-.51074219-2.80859375,1.78955078-5.86914062,4.82617188-6.421875Z" fill="#c13a3a" /><path d="M139.83102541,232.07823756c-.58886719.18554688-1.08935547.5625-1.40917969,1.06054688-.28417969.44238281-.55566406,1.18359375-.234375,2.20019531h.00048828c.50585938,1.59765625,1.96289062,2.71191406,3.36914062,2.71191406.25683594,0,.51220703-.03710938.75976562-.11523438,1.37988281-.43847656,2.08447266-1.96777344,1.60449219-3.48242188-.5625-1.77734375-2.47412109-2.88574219-4.09033203-2.375Z" fill="#c13a3a" /><path d="M150.28268557,215.22472193c-2.52490234,1.15429688-4.61181641,3.40332031-5.72460938,6.17089844-1.11572266,2.77441406-1.12695312,5.73828125-.03222656,8.1328125.91796875,2.00683594,2.54003906,3.47460938,4.56738281,4.13378906.7890625.25585938,1.6171875.38378906,2.45947266.38378906,1.26025391,0,2.55126953-.28613281,3.78417969-.84960938,5.32275391-2.43457031,8.06640625-9.25195312,5.75634766-14.3046875-1.85595703-4.05859375-6.50439453-5.63867188-10.81054688-3.66699219ZM153.89254885,229.04991724c-.97167969.44433594-1.98974609.52148438-2.86621094.21582031-.86914062-.30175781-1.54785156-.94042969-1.96240234-1.84765625-.5703125-1.24804688-.54345703-2.82714844.07421875-4.33398438.62109375-1.515625,1.74072266-2.734375,3.07177734-3.34277344.58056641-.265625,1.17724609-.39941406,1.75097656-.39941406.38623047,0,.76220703.06054688,1.11474609.18359375.86914062.30273438,1.54785156.94140625,1.96240234,1.84765625,1.18994141,2.60351562-.36767578,6.40625-3.14550781,7.67675781Z" fill="#c13a3a" /><path d="M172.17868166,205.94151881c-.80712891-1.21875-2.55664062-1.93554688-3.87451172-1.0625-2.09570312,1.38671875-3.18115234,4.18652344-3.11230469,7.64746094-1.08251953-1.15917969-2.75585938-1.79394531-4.05273438-.93457031-1.03466797.68359375-1.23632812,1.95019531-.49023438,3.07910156.49169922.7421875,2.60351562,3.18945312,7.53222656,8.72851562.32958984.37011719.95166016,1.0703125,1.7421875,1.22851562l.28076172.51269531-.13671875-.49023438c.36083984.04296875.7578125-.03710938,1.17382812-.3125.87011719-.57617188,1.13037109-1.58398438.66064453-2.57421875-2.49609375-5.1875-3.45996094-9.05273438-.53515625-12.31347656.79736328-.90527344,1.78955078-2.03125.81201172-3.50878906Z" fill="#c13a3a" /><path d="M197.11276369,206.00108912c-2.6015625-2.94726562-6.74169922-2.55566406-10.80419922,1.03125-.09570312.08398438-.19873047.17773438-.30664062.27636719,2.06787109-3.31054688,2.09082031-7.46191406-.09521484-9.93847656-1.13916016-1.2890625-2.74414062-1.92480469-4.49707031-1.83007812-.28759766-2.26855469-.57666016-3.24707031-1.08935547-3.82714844-.359375-.40820312-.85009766-.65625-1.38085938-.69921875-.42626953-.03613281-1.06787109.04882812-1.73632812.63964844-.80029297.70605469-1.02636719,1.65234375-.67675781,2.79882812.14599609.5.53955078,1.47460938.9765625,2.52929688-.26074219.18652344-.50439453.37890625-.734375.58203125-1.72753906,1.52636719-2.92236328,3.7265625-3.27832031,6.03710938-.36474609,2.36914062.1875,4.59082031,1.51513672,6.09472656,1.86083984,2.10742188,4.81787109,2.43945312,7.50341797.9609375.16845703.3828125.33691406.75195312.46533203,1.01074219.09912109.20996094.22216797.47070312.44726562.72558594.36425781.41210938.79541016.55859375,1.14208984.67675781l.18652344.06542969c.18505859.06445312.84326172.26953125,1.53710938.24121094.66796875-.01855469,1.23632812-.23242188,1.68847656-.6328125.17089844-.15136719.41162109-.41210938.69726562-.72851562.36572266-.40332031.8203125-.90625,1.29101562-1.32128906.86523438-.76464844,1.94628906-1.38574219,2.89160156-1.66210938.76757812-.22460938,1.38623047-.20019531,1.6171875.06054688.40429688.45800781-.15722656,2.13769531-1.95751953,3.7265625-.86083984.75976562-4.04541016,3.21875-8.62597656,3.06933594-.4921875-.03027344-1.16992188-.07324219-1.76611328.45214844-.37158203.32714844-.58349609.74511719-.61181641,1.20605469-.03320312.53125.17480469,1.0546875.61865234,1.55664062.85107422.96386719,2.24169922,1.47070312,3.94824219,1.47070312.58398438,0,1.20507812-.05859375,1.85400391-.1796875,2.41015625-.44921875,4.91992188-1.70214844,6.88525391-3.4375,1.75976562-1.55273438,3.00976562-3.40722656,3.52050781-5.21972656.60742188-2.15625.18408203-4.13964844-1.22509766-5.73535156ZM183.23532229,203.23253443c-.20654297,1.05078125-.78613281,2.05957031-1.59033203,2.76953125-.56738281.50097656-1.19921875.79589844-1.77880859.83105469-.34326172.01757812-.8359375-.04589844-1.21875-.47949219-.45019531-.50976562-.60205078-1.35644531-.41650391-2.32128906.20263672-1.0546875.77148438-2.05957031,1.56103516-2.75585938.62988281-.55664062,1.31933594-.84375,1.91650391-.84375.4375,0,.82617188.15429688,1.10498047.47070312.45751953.51757812.61132812,1.3671875.421875,2.32910156Z" fill="#c13a3a" /><rect x=".00003713" y=".00004224" width="206.0153" height="253.32591667" fill="none" /></g></svg>