<?xml version="1.0" encoding="UTF-8"?><svg xmlns="http://www.w3.org/2000/svg" xmlns:cc="http://creativecommons.org/ns#" xmlns:dc="http://purl.org/dc/elements/1.1/" xmlns:rdf="http://www.w3.org/1999/02/22-rdf-syntax-ns#" viewBox="0 0 214.01818642 236.93514201"><title>not-slop.org</title><metadata id="metadata4142"><rdf:RDF><cc:Work rdf:about=""><dc:format>image/svg+xml</dc:format><dc:type rdf:resource="http://purl.org/dc/dcmitype/StillImage" /><dc:title>not-slop.org</dc:title><cc:license rdf:resource="https://opensource.org/licenses/MIT" /><dc:creator><cc:Agent><dc:title>https://github.com/octogonz</dc:title></cc:Agent></dc:creator><dc:description>Copyright (c) Pete Gonzalez. All rights reserved. Licensed under the MIT license.</dc:description></cc:Work></rdf:RDF></metadata><g id="a"><path d="M206.50942936,128.87701503c-.00683594-.75341797-.02148438-1.50537109-.04553223-2.2555542-.0098877-.30645752-.0213623-.61248779-.03405762-.918396-.03051758-.74029541-.06994629-1.4786377-.11694336-2.2154541-.01574707-.24749756-.02856445-.49554443-.04614258-.74261475-.06982422-.98095703-.15209961-1.95904541-.25073242-2.93322754-.0098877-.0980835-.02270508-.19543457-.03295898-.29345703-.09106445-.87176514-.19433594-1.74023438-.30810547-2.60614014-.03515625-.26879883-.07348633-.53674316-.11096191-.80493164-.10217285-.73138428-.21228027-1.46044922-.33044434-2.18743896-.04077148-.25115967-.08032227-.50256348-.12304688-.75323486-.32897949-1.9296875-.71325684-3.84307861-1.15319824-5.73791504-.04528809-.19512939-.09387207-.38897705-.14038086-.5836792-.18237305-.7645874-.37353516-1.52606201-.57373047-2.28442383-.05969238-.22607422-.11950684-.45196533-.18078613-.67749023-.22607422-.83294678-.46203613-1.66210938-.70935059-2.48706055-.02868652-.09539795-.05529785-.19152832-.08410645-.28686523-.29248047-.96478271-.59912109-1.92382812-.92016602-2.87713623-.01953125-.05810547-.04052734-.11560059-.06030273-.17364502-.29223633-.86260986-.59765625-1.71954346-.91308594-2.57214355-.06420898-.17388916-.12963867-.34716797-.19482422-.52062988-.30090332-.79962158-.61132812-1.59472656-.93212891-2.38513184-.04663086-.11474609-.09179688-.23016357-.13867188-.34466553-.75805664-1.84729004-1.57080078-3.66802979-2.43603516-5.46130371-.0480957-.09973145-.09741211-.1987915-.14587402-.29840088-.39294434-.80780029-.796875-1.60974121-1.21105957-2.40582275-.05175781-.09936523-.1027832-.19897461-.15490723-.29815674-1.40197754-2.67199707-2.92346191-5.2755127-4.55737305-7.80426025-.0423584-.06555176-.08459473-.13098145-.12719727-.19641113-1.65856934-2.55371094-3.43200684-5.02960205-5.31530762-7.42010498-.0177002-.02258301-.03564453-.04498291-.0534668-.06750488-4.46142578-5.65344238-9.53320312-10.82550049-15.1328125-15.41046143l-.00024414-.00012207c-13.94262695-11.41601562-31.14990234-19.19042969-50.34204102-21.64508057-.05322266-.00683594-.10620117-.01153564-.15942383-.01824951-.25341797-.3024292-.50537109-.60595703-.7890625-.88861084l-18.88305664-18.81658936c-6.18579102-6.16394043-17.24633789-5.09338379-24.70458984,2.39123535v.00006104c-2.72753906,2.73712158-6.98388672,6.12609863-5.55541992,9.23376465.1015625.22088623.22705078.43267822.34912109.64587402-6.61157227,3.08636475-12.18823242,8.45697021-15.36730957,15.60693359l-3.7755127,8.4911499C28.18325749,63.35821621,12.05935612,88.01965419,8.314361,117.30114834c-2.52514648,19.74291992.92370605,38.87127686,8.9354248,55.57409668.07897949.16455078.16064453.32751465.24047852.49157715.34875488.71710205.70593262,1.42950439,1.07165527,2.13739014.10595703.20513916.21166992.41021729.3190918.61456299.40771484.77624512.82421875,1.54736328,1.25195312,2.31195068.04199219.07525635.08239746.15155029.12475586.22674561.48486328.86157227.98303223,1.71496582,1.49291992,2.56115723.07958984.13238525.16223145.26300049.24267578.39501953.42382812.6963501.85644531,1.38708496,1.29711914,2.0725708.12646484.19689941.25366211.39337158.3815918.5894165.44958496.6885376.90722656,1.37158203,1.37353516,2.04864502.08276367.12036133.16357422.24206543.24682617.36206055.56091309.80682373,1.13305664,1.60552979,1.71716309,2.39532471.07006836.0947876.14245605.18774414.2130127.2822876.5032959.67547607,1.015625,1.34411621,1.53588867,2.00671387.14941406.19030762.30004883.37969971.45092773.56896973.48681641.61108398.98095703,1.21618652,1.48217773,1.81573486.12316895.14727783.24438477.29608154.3684082.44262695.63134766.74658203,1.27233887,1.48535156,1.92553711,2.21337891.04150391.04614258.08422852.09106445.12573242.13708496.59765625.66357422,1.20581055,1.31793213,1.82141113,1.96557617.16833496.17700195.33813477.35241699.50769043.52825928.52563477.54486084,1.05737305,1.08355713,1.59533691,1.61657715.16052246.15893555.31945801.31915283.4810791.47705078,1.37670898,1.34552002,2.79345703,2.65179443,4.24853516,3.91772461.18725586.16290283.37658691.32348633.56506348.48504639.56164551.48138428,1.12878418.95654297,1.70153809,1.42565918.19604492.1605835.39123535.32196045.58862305.4810791.73876953.59576416,1.48388672,1.18438721,2.24072266,1.75958252.00488281.00372314.00964355.00762939.01452637.01135254.77197266.58654785,1.55529785,1.15960693,2.34533691,1.72424316.20068359.14337158.40368652.28363037.60546875.42559814.60021973.42224121,1.2052002.83807373,1.81542969,1.24743652.22827148.15307617.45605469.30621338.68566895.4574585.70129395.46191406,1.40844727.91583252,2.12255859,1.3605957.10510254.06549072.20849609.13348389.31396484.1986084.82299805.50830078,1.65539551,1.00341797,2.49499512,1.48852539.20544434.11871338.41333008.23358154.61975098.35083008.64416504.3659668,1.29248047.7253418,1.94592285,1.07745361.25585938.13781738.51184082.27502441.76904297.41064453.68896484.36340332,1.38305664.71856689,2.08203125,1.06634521.17553711.08734131.34912109.17767334.52526855.26403809.87060547.42669678,1.74902344.84088135,2.63464355,1.24304199.19970703.09069824.40209961.17706299.60253906.26647949.69543457.3102417,1.39501953.61328125,2.0994873.90808105.27844238.11657715.55773926.23156738.83752441.34570312.68896484.28094482,1.38232422.55371094,2.0793457.81976318.23071289.08807373.45996094.17895508.69140625.26538086.91455078.34112549,1.83544922.67059326,2.7635498.98583984.17736816.0602417.35705566.11602783.53503418.17529297.75964355.25317383,1.52355957.4979248,2.29199219.73345947.29650879.09088135.59411621.17926025.8918457.26751709.70019531.20739746,1.4041748.40698242,2.11132812.59960938.27026367.0736084.53930664.14959717.81054688.2210083.95776367.2522583,1.9206543.49359131,2.89074707.71832275.12133789.02807617.2442627.0524292.36584473.08013916.85437012.19451904,1.71386719.37756348,2.57763672.55041504.30566406.06121826.61279297.11895752.91967773.17736816.71984863.137146,1.44287109.26635742,2.16894531.38824463.29968262.05029297.59863281.10223389.89941406.14990234.99975586.15856934,2.00354004.30731201,3.01464844.43664551,7.20275879.92120361,14.32275391,1.04779053,21.27441406.44799805,45.65576172-3.93920898,83.99438477-39.2154541,90.04467773-86.52099609.12792969-.99993896.23583984-1.9977417.33325195-2.99432373.02978516-.30371094.05444336-.60668945.0814209-.91003418.06335449-.71563721.11950684-1.43035889.16748047-2.1439209.02160645-.32037354.04309082-.64050293.06152344-.96044922.04602051-.7989502.08154297-1.59631348.10827637-2.39239502.0065918-.19641113.01733398-.39349365.02270508-.58972168.02734375-.98730469.03881836-1.97210693.03686523-2.95446777-.00048828-.2421875-.00622559-.48321533-.00854492-.72503662Z" fill="#fff" stroke="#fff" stroke-miterlimit="10" stroke-width="15" /></g><g id="b"><g id="c"><path d="M106.78217513,228.01519863c-4.16894531,0-8.39453125-.26953125-12.56005859-.80273438C40.6215306,220.3569955,2.59125716,171.17242519,9.44623763,117.57183925c2.85693359-22.33642578,13.40966797-43.15625,29.71484375-58.625,16.07910156-15.25439453,37.02246094-24.69824219,58.97119141-26.59179688,2.77832031-.23974609,5.60400391-.36132812,8.39794922-.36132812,4.16748047,0,8.39208984.27001953,12.55712891.80224609,53.60107422,6.85546875,91.63085938,56.04052734,84.77539062,109.64111328-2.85693359,22.33691406-13.40966797,43.15625-29.71484375,58.625-16.07910156,15.25488281-37.02197266,24.69824219-58.97070312,26.59277344-2.77685547.23925781-5.6015625.36035156-8.39501953.36035156ZM169.81781966,89.07086269c-.32958984,0-.65283203.10888672-.91748047.31347656l-117.22460938,90.63867188c-.33496094.25878906-.54492188.64746094-.578125,1.0703125-.03271484.421875.11474609.83886719.40576172,1.14648438,12.01855469,12.71289062,28.18115234,20.93457031,45.50927734,23.15136719,3.23388672.41308594,6.52148438.62304688,9.77099609.62304688,2.16992188,0,4.35742188-.09375,6.50195312-.27929688,17.00488281-1.46582031,33.2421875-8.79394531,45.72070312-20.63378906,12.82177734-12.16308594,20.78662109-27.88183594,23.03417969-45.45458984,2.21630859-17.328125-1.67285156-35.0390625-10.95117188-49.87109375-.22460938-.359375-.59082031-.60644531-1.0078125-.68115234-.08740234-.015625-.17578125-.0234375-.26367188-.0234375ZM100.02387435,54.27301113c-17.00537109,1.46777344-33.24267578,8.79589844-45.72119141,20.63427734-12.82128906,12.16308594-20.78613281,27.88134766-23.03417969,45.45507812-1.77294922,13.86230469.30810547,27.91455078,6.01757812,40.63720703.18847656.41894531.55859375.72949219,1.00439453.84082031.12011719.03027344.24267578.04492188.36425781.04492188.32861328,0,.65185547-.10839844.91748047-.31347656l114.51757812-88.54541016c.36376953-.28125.578125-.71337891.58251953-1.17285156.00390625-.45996094-.20263672-.89599609-.56103516-1.18359375-10.87792969-8.72851562-23.95410156-14.27880859-37.81494141-16.05126953-3.23632812-.4140625-6.52539062-.62402344-9.77636719-.62402344-2.16748047,0-4.35302734.09375-6.49511719.27832031h-.00097656Z" fill="#c13a3a" /><path d="M106.52942855,33.49356167c4.10461426,0,8.26574707.26599121,12.36761475.79055786,52.7802124,6.75057983,90.22821045,55.18249512,83.47784424,107.96282959-2.81304932,21.99438477-13.20422363,42.49560547-29.25933838,57.72705078-15.8336792,15.02142334-36.45574951,24.32098389-58.06750488,26.18566895-2.73535156.23596191-5.51727295.35565186-8.26843262.35565186-4.10473633,0-8.26580811-.26599121-12.36755371-.79052734-52.78027344-6.75054932-90.22827148-55.18255615-83.47784424-107.96286011,2.81304932-21.99432373,13.20422363-42.49542236,29.25933838-57.72683716,15.83361816-15.02124023,36.45568848-24.32089233,58.06756592-26.18585205.00408936-.00033569.00817871-.0007019.01226807-.00106812,2.73120117-.23532104,5.5088501-.35461426,8.25604248-.35461426M99.9048558,52.77798549c-.00341797.00030518-.00683594.00057983-.01025391.00088501-17.34179688,1.49649048-33.89996338,8.96868896-46.62426758,21.04016113-13.07507324,12.40420532-21.19769287,28.43292236-23.48962402,46.35333252-1.80792236,14.13562012.31420898,28.46569824,6.13690186,41.44110107.37640381.83868408,1.11645508,1.45849609,2.00823975,1.68188477.24078369.06030273.4854126.08984375.7286377.08984375.6574707,0,1.30438232-.21624756,1.83520508-.62670898l114.51745605-88.54507446c.72729492-.56228638,1.15655518-1.42694092,1.16485596-2.34619141s-.40533447-1.79153442-1.12225342-2.36688232c-11.09240723-8.90124512-24.42730713-14.56182861-38.56311035-16.36978149-3.29931641-.42193604-6.65240479-.63586426-9.96612549-.63586426-2.20794678,0-4.43365479.09533691-6.61566162.28329468M106.78833968,207.51416103c2.21136475,0,4.4407959-.09558105,6.62640381-.28417969,17.34155273-1.49621582,33.89959717-8.96826172,46.62402344-21.03985596,13.07513428-12.40441895,21.19769287-28.43322754,23.48962402-46.35351562,2.2600708-17.67114258-1.70593262-35.73245239-11.16741943-50.85693359-.44940186-.71832275-1.18157959-1.21313477-2.01568604-1.3621521-.17553711-.03134155-.35205078-.04678345-.52764893-.04678345-.65924072,0-1.30578613.21746826-1.83508301.62670898l-117.22436523,90.63897705c-.67028809.51831055-1.09020996,1.29589844-1.15588379,2.14068604-.06573486.8447876.22888184,1.67791748.81103516,2.29364014,12.25622559,12.96337891,28.73797607,21.34735107,46.40905762,23.60754395,3.2989502.42193604,6.65197754.63586426,9.96594238.63586426M106.52942855,30.49356167c-2.86590576,0-5.7086792.12368774-8.52496338.3666687-.00042725.00003052-.00085449.00006104-.00128174.00012207C52.34742171,34.80011074,14.00879867,70.07583706,7.95844466,117.38131801c-6.97143555,54.5083313,31.5647583,104.34762573,86.07299805,111.31924438,4.28460693.5479126,8.54016113.8147583,12.74816895.8147583,2.86602783,0,5.70983887-.1237793,8.52630615-.36676025,45.65576172-3.93920898,83.99438477-39.2154541,90.04473877-86.52099609,6.97137451-54.5083313-31.56469727-104.34759521-86.07299805-111.31921387-4.28430176-.5479126-8.54052734-.81478882-12.74822998-.81478882h0ZM38.65467269,160.38519375c-5.42352295-12.08569336-7.69830322-25.75775146-5.89819336-39.83224487,2.20324707-17.22680664,10.01080322-32.634552,22.57861328-44.55749512,12.2333374-11.60568237,28.14984131-18.78939819,44.81744385-20.22769165l.00097656-.00006104c2.11016846-.18206787,4.23583984-.27301025,6.36694336-.27301025,3.19317627-.00003052,6.39892578.20410156,9.58563232.6116333,14.074646,1.80014038,26.73419189,7.44287109,37.06604004,15.73379517l-114.51745605,88.54507446h0ZM106.78833968,204.51422207c-3.19311523,0-6.39892578-.2041626-9.58532715-.61169434-17.72149658-2.26660156-33.19934082-10.62408447-44.60974121-22.69281006l117.22436523-90.63894653c8.80847168,14.08059692,13.00152588,31.16366577,10.73498535,48.88522339-2.20324707,17.22680664-10.01092529,32.63470459-22.57861328,44.55773926-12.23339844,11.60571289-28.14971924,18.78930664-44.81713867,20.22735596-2.11083984.18212891-4.23687744.27313232-6.36853027.27313232h0Z" fill="#822121" /></g></g><g id="d"><path d="M97.83812877,182.92656643c6.69266024,4.57191741,13.8098399,11.08759194,22.31143794,11.58697384,9.91193271.58222463,18.73843236-7.05609111,25.96731485-12.79677323,5.28957264-4.20061539-2.18420233-11.58620205-7.4246212-7.4246212-4.68094816,3.71728762-12.03916487,10.62805905-18.69340288,9.68811625-6.03113746-.85192688-12.04568849-6.83056121-16.86117766-10.12013785-5.5938911-3.82132175-10.85201785,5.27341839-5.29955105,9.06644219h0Z" fill="#a5a5a5" stroke="#000" stroke-miterlimit="10" stroke-width="3" /><path d="M109.54815955,190.93711516c1.91923939.10750369,3.93911533-1.1874111,4.93831332-3.35566388.99918298-2.16822022.67135173-4.5450308-.6572431-5.93422915" fill="none" stroke="#000" stroke-miterlimit="10" stroke-width="3" /><path d="M118.38382897,194.35914131c1.88609518-.2633695,3.63183782-1.95155545,4.23584942-4.31755443.60400252-2.36596346-.11890519-4.68436685-1.64795784-5.81958349" fill="none" stroke="#000" stroke-miterlimit="10" stroke-width="3" /><path d="M128.87667135,193.07552524c1.29846234-1.03584106,1.89117656-3.27996096,1.34480517-5.64209054-.54636318-2.36209411-2.06430424-4.11801108-3.68573689-4.47846887" fill="none" stroke="#000" stroke-miterlimit="10" stroke-width="3" /><rect x="135.59828432" y="162.58867829" width="39.69225133" height="37.61573373" rx="7.77452692" ry="7.77452692" transform="translate(-58.37835962 74.87192645) rotate(-22.92360654)" fill="#a5a5a5" stroke="#000" stroke-linejoin="round" stroke-width="3" /><rect x="86.87514726" y="168.37749748" width="21.11111114" height="19.5555548" rx="6.38888871" ry="6.38888871" transform="translate(-46.47957718 34.90069335) rotate(-16.45717546)" fill="#a5a5a5" stroke="#000" stroke-linejoin="round" stroke-width="3" /><rect id="e" x="84.85022117" y="110.40520336" width="8.15098402" height="91.86037913" rx="2.99999595" ry="2.99999595" transform="translate(-40.64646947 31.59731923) rotate(-16.4571755)" fill="#727272" stroke="#000" stroke-linejoin="round" stroke-width="3" /><rect x="82.17360586" y="171.85018208" width="16.66666667" height="10.44444444" rx="5.22221676" ry="5.22221676" transform="translate(-46.45645609 32.89483753) rotate(-16.45717552)" fill="#a5a5a5" stroke="#000" stroke-linejoin="round" stroke-width="3" /><rect x="85.12037631" y="182.21789074" width="16.66666666" height="10.44444447" rx="5.222217" ry="5.222217" transform="translate(-49.27288919 34.15440006) rotate(-16.45717538)" fill="#a5a5a5" stroke="#000" stroke-linejoin="round" stroke-width="3" /><rect x="79.12027632" y="161.51395102" width="16.66666667" height="10.44444442" rx="5.22221698" ry="5.22221698" transform="translate(-43.65330524 31.60637574) rotate(-16.45717533)" fill="#a5a5a5" stroke="#000" stroke-linejoin="round" stroke-width="3" /><rect x="96.92416176" y="161.17455846" width="10.44444444" height="13.33333209" rx="5.22221695" ry="5.22221695" transform="translate(-43.36442725 35.81409011) rotate(-16.45717523)" fill="#a5a5a5" stroke="#000" stroke-linejoin="round" stroke-width="3" /><g id="f"><g id="g"><path d="M88.56538167,96.10872586c.35620572-5.37176757-8.90416572-6.77770989-19.44376373-4.37830339-9.6482383,2.19648279-25.35068939-1.22136918-25.70689511,4.15039839s16.75486651,8.11419163,26.62828525,8.76889866c9.87341874.65470702,18.16616787-3.16922609,18.52237359-8.54099366Z" /><path id="h" d="M92.18499669,59.35842505c.09780585,2.5717789-.19024926,5.19786228-.91479664,7.80156663l-5.35898347,19.25782762c-3.29204353,11.83015532-15.66461771,18.81585708-27.49477303,15.52381355l-6.43234928-1.78996583c-2.67708788-.74496823-5.102749-1.95860874-7.22072917-3.52206323-.29726578,10.0228585,6.25673802,19.40047381,16.32380682,22.20189339l6.43234928,1.78996583c11.83027292,3.29207625,24.20286347-3.6936843,27.494907-15.52383962l5.35898347-19.25782762c2.76411226-9.93300272-.7798913-20.19364774-8.18841497-26.48137071Z" fill="#ffcd9e" stroke="#000" stroke-linejoin="round" stroke-width="3" /></g><g id="i"><path d="M79.8868901,20.24149566h.00006275c17.29332009,0,31.33330191,14.03998182,31.33330191,31.33330191v19.66672951c0,14.34977337-11.65019535,25.99996872-25.99996872,25.99996872h-5.33339626c-17.29331997,0-31.3333017-14.03998172-31.3333017-31.3333017v-14.33339642c0-17.29332015,14.03998187-31.33330202,31.33330202-31.33330202Z" transform="translate(30.75612184 -27.39007843) rotate(23.97154347)" fill="#ffcd9e" stroke="#000" stroke-miterlimit="10" stroke-width="3" /><path d="M58.90709862,49.69910353c-2.6959476-.98201505-5.75417646-.98581822-8.59598805.24196568-5.90222945,2.55001505-8.61973638,9.40191361-6.06973644,15.30410811,2.55001505,5.90222945,9.40191361,8.61973638,15.30414305,6.06972134,2.84181159-1.2277839,4.93514174-3.45732191,6.06787884-6.09349218" fill="#ffcd9e" /><path d="M58.90709862,49.69910353c-2.6959476-.98201505-5.75417646-.98581822-8.59598805.24196568-5.90222945,2.55001505-8.61973638,9.40191361-6.06973644,15.30410811,2.55001505,5.90222945,9.40191361,8.61973638,15.30414305,6.06972134,2.84181159-1.2277839,4.93514174-3.45732191,6.06787884-6.09349218" fill="none" stroke="#000" stroke-linecap="round" stroke-miterlimit="10" stroke-width="3" /><path d="M99.26454041,77.66034987c-.36413599,2.18527353.00250027,3.97402846,1.20797794,4.87071328,2.50368669,1.86234709,7.64411565-.80998701,11.48144619-5.96879443,3.83735325-5.15883797,4.91850372-10.85063354,2.41481703-12.71298063-1.20547768-.89668482-3.0241278-.73339004-5.01236651.24380782" fill="#ffcd9e" /><path d="M99.26454041,77.66034987c-.36413599,2.18527353.00250027,3.97402846,1.20797794,4.87071328,2.50368669,1.86234709,7.64411565-.80998701,11.48144619-5.96879443,3.83735325-5.15883797,4.91850372-10.85063354,2.41481703-12.71298063-1.20547768-.89668482-3.0241278-.73339004-5.01236651.24380782" fill="none" stroke="#000" stroke-linecap="round" stroke-miterlimit="10" stroke-width="3" /><ellipse cx="71.43657082" cy="42.37229865" rx="9" ry="6.77777778" transform="translate(-8.33229992 65.51365998) rotate(-46.85183578)" fill="#fff" stroke="#000" stroke-miterlimit="10" stroke-width="3" /><ellipse cx="86.73419583" cy="55.20275905" rx="9" ry="6.77777778" transform="translate(-12.8574721 80.73048931) rotate(-46.85183578)" fill="#fff" stroke="#000" stroke-miterlimit="10" stroke-width="3" /><path d="M110.39706686,41.69379655c4.56334459,3.13958308,4.93349269,9.79019668,3.25132421,15.4790703.82071716-.62571949,1.62097999-1.300268,2.37652931-2.05848682l.00006131-.00006152c7.45826007-7.48461152,8.48978808-18.54889168,2.30405861-24.71284459l-18.88306623-18.81658931c-6.18572947-6.16395291-17.24625033-5.093359-24.70451039,2.39125251l-.00006131.00006152c-2.72749381,2.73713057-6.98380103,6.12607847-5.55538282,9.23377429,4.7157641,10.25971265,31.90847288,12.08364834,41.21104732,18.48382362Z" fill="#727272" stroke="#000" stroke-linejoin="round" stroke-width="3" /></g></g><polyline points="154.00344943 125.97006691 161.11624963 105.72681352 163.75220452 127.02077924" fill="#a5a5a5" stroke="#000" stroke-linejoin="round" stroke-width="3" /><rect x="113.38814914" y="125.50204566" width="70.74008375" height="40.56875829" rx="12" ry="12" transform="translate(16.47881672 -15.10126331) rotate(6.15154309)" fill="#a5a5a5" stroke="#000" stroke-linejoin="round" stroke-width="3" /><rect x="124.46380075" y="133.67848913" width="15.55555555" height="15.33333334" rx="7.666659" ry="7.666659" transform="translate(15.90779325 -13.35694038) rotate(6.15154306)" fill="#727272" stroke="#000" stroke-linejoin="round" stroke-width="3" /><rect x="151.41880464" y="136.58367598" width="15.55555555" height="15.33333333" rx="7.666659" ry="7.666659" transform="translate(16.37431707 -16.22867071) rotate(6.15154304)" fill="#727272" stroke="#000" stroke-linejoin="round" stroke-width="3" /><rect x="157.32021263" y="101.41745202" width="7.49019642" height="7.49019641" rx="3.74509445" ry="3.74509445" transform="translate(12.19648274 -16.65398538) rotate(6.15154108)" fill="#a5a5a5" stroke="#000" stroke-linejoin="round" stroke-width="3" /></g><g id="j"><g id="k"><path d="M168.36169148,53.91170588l-18.15751844,13.83165016c1.33005451.93294311,2.63496404,1.90603813,3.90711223,2.92686482.35808492.28766611.5653142.72410458.56086061,1.18370819-.00396711.45956164-.21858914.89171989-.58247001,1.17306448l-114.51756038,88.5444089c-.2306105.17868817-.50482481.28370344-.78843907.30817392-.16345522.01410306-.33023389.00104752-.49352539-.03975423-.44580559-.11150469-.81563471-.42168208-1.00371397-.84065911-.81803155-1.8226579-1.55263346-3.67524235-2.22103614-5.54799635l-18.16378462,13.83641788c13.39589796,30.46875733,41.96947851,53.40388266,77.32014899,57.92570848,6.97050826.89042883,14.02107976,1.0388067,20.95527813.44051812,21.94872752-1.89375505,42.89170519-11.33739899,58.97101343-26.59149355,16.30486681-15.46861389,26.85790841-36.28877317,29.71504194-58.62486704,4.45693356-34.85099414-10.06582718-67.82983208-35.50140731-88.52574468ZM182.04043584,139.64628922c-2.24770113,17.57320504-10.21262381,33.29165001-23.03380348,45.45540385-12.47827089,11.83814978-28.71556147,19.16633039-45.72074164,20.63355193-5.38088734.46426758-10.85592539.34854413-16.2729641-.34461493-17.32843778-2.21686975-33.49056022-10.43903905-45.50963787-23.15115787-.29115384-.30716365-.43835208-.72378679-.40568849-1.14612666s.24262528-.81194782.57810766-1.07025816l117.22444944-90.63934377c.2297215-.17763127.50438031-.283175.78848104-.30768745.12988852-.01120689.26221906-.00547115.39265532.01807147.4171091.07428292.78346955.32153729,1.00807215.68100209,9.27803635,14.83156457,13.16696677,32.54280566,10.95106996,49.87115949Z" fill="#c13a3a" /><path d="M49.602278,180.97713178c-.06568681.84477203.22888162,1.67788095.81100592,2.2936331,12.25633958,12.96340553,28.73805674,21.34736052,46.40912949,23.60750785,5.52485934.70664563,11.1073314.82498439,16.59232415.35173451,17.34163765-1.49625138,33.89965065-8.96837933,46.62402924-21.03991351,13.07506209-12.40430282,21.19766648-28.43310544,23.48959475-46.35356076,2.26009177-17.67100669-1.70591433-35.73238704-11.16733729-50.85682767-.44940121-.71836134-1.18160106-1.21322134-2.01573438-1.36222334-.26163681-.04671298-.52555768-.05812581-.78539553-.03570678-.56856107.0491172-1.11723078.25990369-1.57724514.61564437l-117.22447568,90.63903973c-.67033137.51828135-1.09020872,1.29590048-1.15589553,2.14067251ZM169.81766243,90.57074185c8.80842193,14.08057931,13.00147699,31.1636819,10.73496408,48.88523233-2.20327368,17.22685641-10.01090048,32.63473197-22.5786444,44.55773032-12.23336674,11.60572687-28.14968331,18.78932584-44.81712901,20.22740736-5.27270772.45493375-10.64025834.3410246-15.9538201-.33857941-17.72149488-2.26657897-33.19936179-10.62411878-44.60979068-22.69281692l117.22442012-90.63897367Z" fill="#822121" /><path d="M153.17212048,71.84012217l-114.51744186,88.54507255c-.86288391-1.922872-1.63653085-3.89001681-2.33630166-5.88846932l-2.50801531,1.91053084c.63904824,1.75619355,1.3387244,3.49367844,2.10725198,5.20623159.37640391.83866805,1.11650665,1.45849437,2.00821011,1.68186336.32622338.08169579.65940323.10698176.9865569.07875466.56722852-.04894096,1.11608805-.25894743,1.57737201-.61559406l114.51744186-88.54507255c.72724069-.56233791,1.15651408-1.42702452,1.16480792-2.34624008s-.40532174-1.79155263-1.12228735-2.36687745c-1.17328899-.94150675-2.37692081-1.83849235-3.59866025-2.70677657l-2.49887656,1.90355489c1.44506934,1.00069964,2.85413225,2.04702172,4.2199422,3.14302214Z" fill="#822121" /><path d="M169.61972493,52.95339759l-2.48415936,1.89236064c25.22146504,20.36427476,39.64492347,52.95476461,35.23933805,87.40116553-2.81309785,21.99443495-13.20424049,42.49560235-29.25933557,57.72714629-15.83369536,15.02136545-36.45577868,24.32092471-58.06756224,26.18560795-6.82930244.58923808-13.77230472.4429125-20.63592238-.43486844-34.93869191-4.46866442-63.15296213-27.20487537-76.28129147-57.37356213l-2.48904482,1.89609031c13.64115174,30.77148839,42.56501616,53.87120383,78.38971671,58.4532121,7.20277075.92117516,14.32283661,1.04781268,21.27442642.44802355,45.65581479-3.93922289,83.99439224-39.21547705,90.04475364-86.52103003,4.51683777-35.31617848-10.07435481-68.66709811-35.73091897-89.67414576Z" fill="#822121" /></g></g></svg>